<svg>
    <symbol id="logo-header-desktop" width="156" height="44" viewBox="0 0 107 30" fill="none" xmlns="http://www.w3.org/2000/svg">
        <path d="M10.2477 5.45547C7.99619 9.36262 5.39676 16.4911 6.5565 23.6715C6.59201 23.8831 6.56496 24.1005 6.47866 24.2969C6.39237 24.4934 6.25059 24.6604 6.07073 24.7774C5.89087 24.8944 5.68075 24.9563 5.46619 24.9556C5.25162 24.9549 5.04193 24.8915 4.86287 24.7733C2.9986 23.5116 1.56352 21.7113 0.749232 19.6127C-0.0650591 17.5141 -0.219818 15.2171 0.305615 13.0282C0.831048 10.8393 2.01167 8.8628 3.68987 7.36251C5.36807 5.86222 7.46399 4.90954 9.69782 4.63165C9.79983 4.61891 9.90337 4.63481 9.99685 4.67757C10.0903 4.72033 10.1701 4.78826 10.2271 4.87376C10.2842 4.95927 10.3164 5.05897 10.32 5.1617C10.3236 5.26444 10.2986 5.36615 10.2477 5.45547Z" fill="#5C6784"/>
        <path d="M22.1932 19.1665C22.364 19.1252 22.5413 19.1183 22.7147 19.1464C22.8882 19.1745 23.0543 19.2369 23.2033 19.3301C23.3523 19.4232 23.4812 19.5451 23.5824 19.6887C23.6836 19.8323 23.7552 19.9947 23.7929 20.1663C24.1579 21.7802 24.0172 23.4673 23.3898 24.9984C22.7624 26.5295 21.6787 27.8303 20.2862 28.724C18.8936 29.6176 17.2596 30.0608 15.6063 29.9933C13.9531 29.9257 12.3607 29.3508 11.0456 28.3465C10.3768 27.8371 9.79363 27.2242 9.31801 26.5309C9.05124 26.1815 8.82829 25.8008 8.65415 25.3972C7.76234 22.5058 12.0094 20.8302 12.7952 20.4562C15.1947 19.3205 17.1943 19.3445 19.1179 19.3665C19.9023 19.3897 20.6874 19.3684 21.4694 19.3025C21.7131 19.2712 21.9548 19.2258 22.1932 19.1665Z" fill="#F95738"/>
        <path d="M26.7741 13.4538C26.7152 13.5239 26.6525 13.5906 26.5862 13.6537C26.5082 13.7317 26.4302 13.8017 26.3502 13.8697C25.999 14.1647 25.5973 14.3937 25.1645 14.5456C24.9651 14.6176 24.7605 14.6744 24.5526 14.7155C21.5932 15.3374 17.4941 13.6298 12.0253 17.7569C11.3015 18.3047 10.8656 18.1348 10.6576 17.4929C10.3877 16.6691 10.4897 15.0614 10.8356 13.1838C11.5374 9.36068 13.2351 4.41376 14.8347 2.65214C15.0744 2.38472 15.3323 2.13418 15.6065 1.9023C16.2001 1.3988 16.8644 0.985147 17.5781 0.674572C19.2656 -0.0633728 21.1551 -0.200501 22.9315 0.286056C24.7079 0.772613 26.2638 1.85344 27.3398 3.34831C28.4157 4.84317 28.9467 6.66172 28.8441 8.50067C28.7415 10.3396 28.0116 12.0878 26.7761 13.4538H26.7741Z" fill="#0EA976"/>
        <path d="M43.1025 9.45203H42.9765C42.7592 10.0586 42.5199 10.7478 42.2587 11.5196C41.9974 12.2914 41.7241 13.0912 41.4388 13.9191C41.1529 14.7489 40.885 15.5527 40.639 16.3185L40.2871 17.8822C40.1851 18.2021 40.0871 18.5541 39.9712 18.94C39.8552 19.3259 39.7432 19.7178 39.6192 20.1137C39.4953 20.5096 39.3753 20.8815 39.2653 21.2335C39.1553 21.5854 39.0654 21.8993 38.9754 22.1673C38.8074 22.2173 38.6275 22.2632 38.4335 22.3052C38.2051 22.3509 37.9725 22.3724 37.7397 22.3692C37.2937 22.3929 36.8509 22.2829 36.4679 22.0533C36.3146 21.9499 36.191 21.8082 36.1093 21.6423C36.0276 21.4764 35.9906 21.2921 36.002 21.1075C36.003 20.9116 36.0327 20.7169 36.09 20.5296C36.148 20.3297 36.212 20.0997 36.278 19.8478C36.4459 19.2932 36.6732 18.6 36.9598 17.7682C37.2464 16.9364 37.5577 16.0359 37.8936 15.0668C38.2295 14.0924 38.5781 13.1092 38.9394 12.1175C39.3006 11.1257 39.6412 10.1972 39.9612 9.33206C40.2784 8.46825 40.5557 7.74174 40.793 7.15253C41.0873 7.00152 41.4008 6.8912 41.7248 6.8246C42.146 6.72443 42.5775 6.67409 43.0105 6.67464C43.5462 6.66903 44.0789 6.75422 44.5862 6.92658C45.0634 7.09455 45.3613 7.36115 45.48 7.72641C45.8332 8.65021 46.2111 9.70864 46.6137 10.9017C47.0163 12.0948 47.4282 13.3385 47.8494 14.6329C48.2694 15.926 48.6726 17.1863 49.0592 18.4141C49.4458 19.6418 49.7897 20.7549 50.091 21.7534C49.8967 21.9549 49.6596 22.11 49.3971 22.2073C49.0713 22.3296 48.7253 22.3893 48.3773 22.3832C47.8228 22.3832 47.4229 22.2779 47.1776 22.0673C46.9017 21.8032 46.7051 21.4673 46.6097 21.0975L45.5779 17.7962L45.25 16.1826C44.9834 15.3254 44.7168 14.4809 44.4502 13.6491C44.1836 12.8173 43.9356 12.0401 43.7064 11.3176C43.4717 10.5964 43.2704 9.97458 43.1025 9.45203ZM38.8694 18.5001L40.0531 16.0066H46.3538L46.8337 18.5001H38.8694Z" fill="#2C2C2C"/>
        <path d="M55.4279 12.1995H52.3286L52.4306 6.88065C52.5646 6.84665 52.7585 6.80466 53.0105 6.75467C53.2846 6.70222 53.5632 6.67677 53.8423 6.67869C54.4302 6.67869 54.8587 6.784 55.128 6.99462C55.3973 7.20524 55.5306 7.57916 55.5279 8.11638L55.4279 12.1995ZM58.2513 9.87999C59.2644 9.86536 60.2651 10.1039 61.1627 10.5738C62.0417 11.0499 62.7572 11.7793 63.2162 12.6674C63.7228 13.6005 63.9754 14.7643 63.9741 16.1586C63.9727 17.553 63.7061 18.7294 63.1743 19.6879C62.6699 20.6053 61.8948 21.3448 60.9547 21.8054C59.92 22.2943 58.7857 22.536 57.6415 22.5112C56.7926 22.5263 55.9463 22.4116 55.132 22.1713C54.5016 21.9795 53.8972 21.7109 53.3324 21.3715C53.0281 21.169 52.7671 20.908 52.5646 20.6037C52.3958 20.3091 52.3127 19.9732 52.3246 19.6339V11.4936H55.4239V19.4339C55.7022 19.6127 56.0036 19.7527 56.3197 19.8498C56.7394 19.9817 57.1776 20.0452 57.6175 20.0378C58.0483 20.0558 58.4779 19.9793 58.8762 19.8139C59.2744 19.6485 59.6317 19.398 59.923 19.08C60.5028 18.4428 60.7928 17.4683 60.7928 16.1566C60.7928 14.8449 60.5088 13.8818 59.941 13.2673C59.6525 12.9631 59.3024 12.724 58.9142 12.5661C58.5259 12.4082 58.1083 12.335 57.6894 12.3515C57.1502 12.3413 56.6156 12.4535 56.1258 12.6794C55.7056 12.8755 55.3151 13.1299 54.966 13.4352L54.7661 10.9138C55.228 10.6423 55.7124 10.4108 56.2138 10.2219C56.8655 9.98102 57.5567 9.86502 58.2513 9.87999Z" fill="#2C2C2C"/>
        <path d="M67.9812 17.7702L67.8552 15.6027L74.6097 14.6029C74.5711 13.9783 74.315 13.3869 73.8859 12.9313C73.45 12.4621 72.8115 12.2268 71.9703 12.2254C71.5706 12.2155 71.1732 12.2899 70.8042 12.4439C70.4352 12.5979 70.1028 12.8281 69.8288 13.1192C69.2569 13.7164 68.963 14.5696 68.947 15.6787L69.021 16.9884C69.1729 18.0642 69.5888 18.854 70.2687 19.3579C70.9505 19.8618 71.8103 20.1137 72.8541 20.1137C73.5223 20.1199 74.1867 20.0137 74.8197 19.7998C75.3283 19.6367 75.8116 19.4031 76.2554 19.1059C76.4843 19.2509 76.6783 19.4448 76.8233 19.6738C76.9645 19.8961 77.0388 20.1543 77.0372 20.4177C77.0349 20.6367 76.9812 20.8521 76.8805 21.0465C76.7798 21.241 76.6348 21.4091 76.4573 21.5374C75.9916 21.8898 75.4556 22.138 74.8857 22.2653C74.1512 22.4423 73.3976 22.527 72.6422 22.5172C71.4554 22.5401 70.279 22.294 69.2009 21.7974C68.2183 21.3355 67.4005 20.584 66.8574 19.6438C66.2935 18.6867 66.0116 17.4936 66.0116 16.0646C65.9904 15.1403 66.1522 14.2208 66.4875 13.3592C66.7662 12.6436 67.1965 11.9969 67.7487 11.4633C68.3009 10.9297 68.9621 10.5219 69.6868 10.2679C70.4136 10.0036 71.181 9.86824 71.9543 9.86795C72.9651 9.84555 73.9657 10.0751 74.8657 10.5358C75.6777 10.9627 76.3575 11.6037 76.8313 12.3894C77.3199 13.2118 77.5692 14.1543 77.5511 15.1108C77.5511 15.5827 77.4291 15.9313 77.1852 16.1566C76.8985 16.4023 76.5401 16.5488 76.1634 16.5745L67.9812 17.7702Z" fill="#2C2C2C"/>
        <path d="M87.9427 19.5339V11.6196H91.0441V19.8658C91.0564 20.1894 90.9729 20.5094 90.8041 20.7856C90.6011 21.0702 90.3384 21.307 90.0343 21.4795C89.5216 21.7965 88.9661 22.0383 88.3846 22.1973C87.6098 22.4182 86.8068 22.5246 86.0012 22.5132C84.8117 22.5396 83.6304 22.3119 82.5359 21.8454C81.574 21.4178 80.7744 20.6932 80.2544 19.7778C79.7212 18.8447 79.4546 17.6643 79.4546 16.2366C79.4546 14.7703 79.7279 13.5705 80.2744 12.6374C80.778 11.7358 81.5456 11.0101 82.4739 10.5579C83.435 10.1047 84.4867 9.87626 85.5493 9.89C86.1238 9.88372 86.6963 9.9605 87.2489 10.1179C87.6873 10.236 88.1072 10.4143 88.4966 10.6478V13.2833C88.185 13.0046 87.827 12.7826 87.4388 12.6274C86.9584 12.4354 86.4444 12.3416 85.9272 12.3515C85.3399 12.3463 84.7602 12.4835 84.2375 12.7514C83.7157 13.0304 83.2999 13.473 83.0538 14.0111C82.7416 14.7207 82.5946 15.4919 82.6239 16.2666C82.6239 17.577 82.9265 18.5348 83.5317 19.14C84.1369 19.7452 84.9521 20.0471 85.9772 20.0458C86.3691 20.0541 86.76 20.0036 87.1369 19.8958C87.4193 19.8086 87.6899 19.687 87.9427 19.5339ZM91.0441 12.2495L87.9427 12.2675L88.0447 6.86866C88.1627 6.83467 88.3506 6.79267 88.6126 6.74268C88.8822 6.69142 89.156 6.66598 89.4304 6.6667C90.0303 6.6667 90.4722 6.77268 90.7421 6.98263C91.0121 7.19259 91.142 7.56651 91.142 8.10439L91.0441 12.2495Z" fill="#2C2C2C"/>
        <path d="M105.245 12.8554C104.755 11.9334 104.012 11.1704 103.104 10.6559C102.119 10.1182 101.011 9.84856 99.8903 9.87403C98.7669 9.84969 97.6562 10.1148 96.665 10.6439C95.748 11.1469 94.9954 11.9036 94.4974 12.8234C93.9534 13.8555 93.6842 15.0103 93.7156 16.1767C93.7156 17.487 93.9715 18.6128 94.4834 19.5539C94.9763 20.4734 95.725 21.2305 96.639 21.7334C97.6459 22.2397 98.7572 22.5034 99.8843 22.5034C101.011 22.5034 102.123 22.2397 103.13 21.7334C104.04 21.226 104.781 20.4608 105.259 19.5339C105.784 18.4916 106.044 17.3355 106.015 16.1687C106.042 15.017 105.777 13.8773 105.245 12.8554ZM102.058 19.032C101.803 19.3597 101.473 19.6215 101.096 19.7954C100.718 19.9694 100.305 20.0504 99.8903 20.0318C98.9478 20.0318 98.2146 19.6986 97.6907 19.032C97.1668 18.3655 96.9062 17.4124 96.9089 16.1727C96.9089 14.9623 97.1755 14.0211 97.7087 13.3493C97.9627 13.0233 98.2907 12.7625 98.6656 12.5887C99.0404 12.4148 99.4514 12.3328 99.8643 12.3495C100.805 12.3495 101.539 12.6894 102.064 13.3693C102.589 14.0491 102.85 14.9862 102.846 16.1807C102.842 17.4084 102.579 18.3588 102.058 19.032Z" fill="#2C2C2C"/>
    </symbol>
    <symbol id="logo-header-mobile" width="107" height="30" viewBox="0 0 107 30" fill="none" xmlns="http://www.w3.org/2000/svg">
        <path d="M10.2477 5.45547C7.99619 9.36262 5.39676 16.4911 6.5565 23.6715C6.59201 23.8831 6.56496 24.1005 6.47866 24.2969C6.39237 24.4934 6.25059 24.6604 6.07073 24.7774C5.89087 24.8944 5.68075 24.9563 5.46619 24.9556C5.25162 24.9549 5.04193 24.8915 4.86287 24.7733C2.9986 23.5116 1.56352 21.7113 0.749232 19.6127C-0.0650591 17.5141 -0.219818 15.2171 0.305615 13.0282C0.831048 10.8393 2.01167 8.8628 3.68987 7.36251C5.36807 5.86222 7.46399 4.90954 9.69782 4.63165C9.79983 4.61891 9.90337 4.63481 9.99685 4.67757C10.0903 4.72033 10.1701 4.78826 10.2271 4.87376C10.2842 4.95927 10.3164 5.05897 10.32 5.1617C10.3236 5.26444 10.2986 5.36615 10.2477 5.45547Z" fill="#5C6784"/>
        <path d="M22.1932 19.1665C22.364 19.1252 22.5413 19.1183 22.7147 19.1464C22.8882 19.1745 23.0543 19.2369 23.2033 19.3301C23.3523 19.4232 23.4812 19.5451 23.5824 19.6887C23.6836 19.8323 23.7552 19.9947 23.7929 20.1663C24.1579 21.7802 24.0172 23.4673 23.3898 24.9984C22.7624 26.5295 21.6787 27.8303 20.2862 28.724C18.8936 29.6176 17.2596 30.0608 15.6063 29.9933C13.9531 29.9257 12.3607 29.3508 11.0456 28.3465C10.3768 27.8371 9.79363 27.2242 9.31801 26.5309C9.05124 26.1815 8.82829 25.8008 8.65415 25.3972C7.76234 22.5058 12.0094 20.8302 12.7952 20.4562C15.1947 19.3205 17.1943 19.3445 19.1179 19.3665C19.9023 19.3897 20.6874 19.3684 21.4694 19.3025C21.7131 19.2712 21.9548 19.2258 22.1932 19.1665Z" fill="#F95738"/>
        <path d="M26.7741 13.4538C26.7152 13.5239 26.6525 13.5906 26.5862 13.6537C26.5082 13.7317 26.4302 13.8017 26.3502 13.8697C25.999 14.1647 25.5973 14.3937 25.1645 14.5456C24.9651 14.6176 24.7605 14.6744 24.5526 14.7155C21.5932 15.3374 17.4941 13.6298 12.0253 17.7569C11.3015 18.3047 10.8656 18.1348 10.6576 17.4929C10.3877 16.6691 10.4897 15.0614 10.8356 13.1838C11.5374 9.36068 13.2351 4.41376 14.8347 2.65214C15.0744 2.38472 15.3323 2.13418 15.6065 1.9023C16.2001 1.3988 16.8644 0.985147 17.5781 0.674572C19.2656 -0.0633728 21.1551 -0.200501 22.9315 0.286056C24.7079 0.772613 26.2638 1.85344 27.3398 3.34831C28.4157 4.84317 28.9467 6.66172 28.8441 8.50067C28.7415 10.3396 28.0116 12.0878 26.7761 13.4538H26.7741Z" fill="#0EA976"/>
        <path d="M43.1025 9.45203H42.9765C42.7592 10.0586 42.5199 10.7478 42.2587 11.5196C41.9974 12.2914 41.7241 13.0912 41.4388 13.9191C41.1529 14.7489 40.885 15.5527 40.639 16.3185L40.2871 17.8822C40.1851 18.2021 40.0871 18.5541 39.9712 18.94C39.8552 19.3259 39.7432 19.7178 39.6192 20.1137C39.4953 20.5096 39.3753 20.8815 39.2653 21.2335C39.1553 21.5854 39.0654 21.8993 38.9754 22.1673C38.8074 22.2173 38.6275 22.2632 38.4335 22.3052C38.2051 22.3509 37.9725 22.3724 37.7397 22.3692C37.2937 22.3929 36.8509 22.2829 36.4679 22.0533C36.3146 21.9499 36.191 21.8082 36.1093 21.6423C36.0276 21.4764 35.9906 21.2921 36.002 21.1075C36.003 20.9116 36.0327 20.7169 36.09 20.5296C36.148 20.3297 36.212 20.0997 36.278 19.8478C36.4459 19.2932 36.6732 18.6 36.9598 17.7682C37.2464 16.9364 37.5577 16.0359 37.8936 15.0668C38.2295 14.0924 38.5781 13.1092 38.9394 12.1175C39.3006 11.1257 39.6412 10.1972 39.9612 9.33206C40.2784 8.46825 40.5557 7.74174 40.793 7.15253C41.0873 7.00152 41.4008 6.8912 41.7248 6.8246C42.146 6.72443 42.5775 6.67409 43.0105 6.67464C43.5462 6.66903 44.0789 6.75422 44.5862 6.92658C45.0634 7.09455 45.3613 7.36115 45.48 7.72641C45.8332 8.65021 46.2111 9.70864 46.6137 10.9017C47.0163 12.0948 47.4282 13.3385 47.8494 14.6329C48.2694 15.926 48.6726 17.1863 49.0592 18.4141C49.4458 19.6418 49.7897 20.7549 50.091 21.7534C49.8967 21.9549 49.6596 22.11 49.3971 22.2073C49.0713 22.3296 48.7253 22.3893 48.3773 22.3832C47.8228 22.3832 47.4229 22.2779 47.1776 22.0673C46.9017 21.8032 46.7051 21.4673 46.6097 21.0975L45.5779 17.7962L45.25 16.1826C44.9834 15.3254 44.7168 14.4809 44.4502 13.6491C44.1836 12.8173 43.9356 12.0401 43.7064 11.3176C43.4717 10.5964 43.2704 9.97458 43.1025 9.45203ZM38.8694 18.5001L40.0531 16.0066H46.3538L46.8337 18.5001H38.8694Z" fill="#2C2C2C"/>
        <path d="M55.4279 12.1995H52.3286L52.4306 6.88065C52.5646 6.84665 52.7585 6.80466 53.0105 6.75467C53.2846 6.70222 53.5632 6.67677 53.8423 6.67869C54.4302 6.67869 54.8587 6.784 55.128 6.99462C55.3973 7.20524 55.5306 7.57916 55.5279 8.11638L55.4279 12.1995ZM58.2513 9.87999C59.2644 9.86536 60.2651 10.1039 61.1627 10.5738C62.0417 11.0499 62.7572 11.7793 63.2162 12.6674C63.7228 13.6005 63.9754 14.7643 63.9741 16.1586C63.9727 17.553 63.7061 18.7294 63.1743 19.6879C62.6699 20.6053 61.8948 21.3448 60.9547 21.8054C59.92 22.2943 58.7857 22.536 57.6415 22.5112C56.7926 22.5263 55.9463 22.4116 55.132 22.1713C54.5016 21.9795 53.8972 21.7109 53.3324 21.3715C53.0281 21.169 52.7671 20.908 52.5646 20.6037C52.3958 20.3091 52.3127 19.9732 52.3246 19.6339V11.4936H55.4239V19.4339C55.7022 19.6127 56.0036 19.7527 56.3197 19.8498C56.7394 19.9817 57.1776 20.0452 57.6175 20.0378C58.0483 20.0558 58.4779 19.9793 58.8762 19.8139C59.2744 19.6485 59.6317 19.398 59.923 19.08C60.5028 18.4428 60.7928 17.4683 60.7928 16.1566C60.7928 14.8449 60.5088 13.8818 59.941 13.2673C59.6525 12.9631 59.3024 12.724 58.9142 12.5661C58.5259 12.4082 58.1083 12.335 57.6894 12.3515C57.1502 12.3413 56.6156 12.4535 56.1258 12.6794C55.7056 12.8755 55.3151 13.1299 54.966 13.4352L54.7661 10.9138C55.228 10.6423 55.7124 10.4108 56.2138 10.2219C56.8655 9.98102 57.5567 9.86502 58.2513 9.87999Z" fill="#2C2C2C"/>
        <path d="M67.9812 17.7702L67.8552 15.6027L74.6097 14.6029C74.5711 13.9783 74.315 13.3869 73.8859 12.9313C73.45 12.4621 72.8115 12.2268 71.9703 12.2254C71.5706 12.2155 71.1732 12.2899 70.8042 12.4439C70.4352 12.5979 70.1028 12.8281 69.8288 13.1192C69.2569 13.7164 68.963 14.5696 68.947 15.6787L69.021 16.9884C69.1729 18.0642 69.5888 18.854 70.2687 19.3579C70.9505 19.8618 71.8103 20.1137 72.8541 20.1137C73.5223 20.1199 74.1867 20.0137 74.8197 19.7998C75.3283 19.6367 75.8116 19.4031 76.2554 19.1059C76.4843 19.2509 76.6783 19.4448 76.8233 19.6738C76.9645 19.8961 77.0388 20.1543 77.0372 20.4177C77.0349 20.6367 76.9812 20.8521 76.8805 21.0465C76.7798 21.241 76.6348 21.4091 76.4573 21.5374C75.9916 21.8898 75.4556 22.138 74.8857 22.2653C74.1512 22.4423 73.3976 22.527 72.6422 22.5172C71.4554 22.5401 70.279 22.294 69.2009 21.7974C68.2183 21.3355 67.4005 20.584 66.8574 19.6438C66.2935 18.6867 66.0116 17.4936 66.0116 16.0646C65.9904 15.1403 66.1522 14.2208 66.4875 13.3592C66.7662 12.6436 67.1965 11.9969 67.7487 11.4633C68.3009 10.9297 68.9621 10.5219 69.6868 10.2679C70.4136 10.0036 71.181 9.86824 71.9543 9.86795C72.9651 9.84555 73.9657 10.0751 74.8657 10.5358C75.6777 10.9627 76.3575 11.6037 76.8313 12.3894C77.3199 13.2118 77.5692 14.1543 77.5511 15.1108C77.5511 15.5827 77.4291 15.9313 77.1852 16.1566C76.8985 16.4023 76.5401 16.5488 76.1634 16.5745L67.9812 17.7702Z" fill="#2C2C2C"/>
        <path d="M87.9427 19.5339V11.6196H91.0441V19.8658C91.0564 20.1894 90.9729 20.5094 90.8041 20.7856C90.6011 21.0702 90.3384 21.307 90.0343 21.4795C89.5216 21.7965 88.9661 22.0383 88.3846 22.1973C87.6098 22.4182 86.8068 22.5246 86.0012 22.5132C84.8117 22.5396 83.6304 22.3119 82.5359 21.8454C81.574 21.4178 80.7744 20.6932 80.2544 19.7778C79.7212 18.8447 79.4546 17.6643 79.4546 16.2366C79.4546 14.7703 79.7279 13.5705 80.2744 12.6374C80.778 11.7358 81.5456 11.0101 82.4739 10.5579C83.435 10.1047 84.4867 9.87626 85.5493 9.89C86.1238 9.88372 86.6963 9.9605 87.2489 10.1179C87.6873 10.236 88.1072 10.4143 88.4966 10.6478V13.2833C88.185 13.0046 87.827 12.7826 87.4388 12.6274C86.9584 12.4354 86.4444 12.3416 85.9272 12.3515C85.3399 12.3463 84.7602 12.4835 84.2375 12.7514C83.7157 13.0304 83.2999 13.473 83.0538 14.0111C82.7416 14.7207 82.5946 15.4919 82.6239 16.2666C82.6239 17.577 82.9265 18.5348 83.5317 19.14C84.1369 19.7452 84.9521 20.0471 85.9772 20.0458C86.3691 20.0541 86.76 20.0036 87.1369 19.8958C87.4193 19.8086 87.6899 19.687 87.9427 19.5339ZM91.0441 12.2495L87.9427 12.2675L88.0447 6.86866C88.1627 6.83467 88.3506 6.79267 88.6126 6.74268C88.8822 6.69142 89.156 6.66598 89.4304 6.6667C90.0303 6.6667 90.4722 6.77268 90.7421 6.98263C91.0121 7.19259 91.142 7.56651 91.142 8.10439L91.0441 12.2495Z" fill="#2C2C2C"/>
        <path d="M105.245 12.8554C104.755 11.9334 104.012 11.1704 103.104 10.6559C102.119 10.1182 101.011 9.84856 99.8903 9.87403C98.7669 9.84969 97.6562 10.1148 96.665 10.6439C95.748 11.1469 94.9954 11.9036 94.4974 12.8234C93.9534 13.8555 93.6842 15.0103 93.7156 16.1767C93.7156 17.487 93.9715 18.6128 94.4834 19.5539C94.9763 20.4734 95.725 21.2305 96.639 21.7334C97.6459 22.2397 98.7572 22.5034 99.8843 22.5034C101.011 22.5034 102.123 22.2397 103.13 21.7334C104.04 21.226 104.781 20.4608 105.259 19.5339C105.784 18.4916 106.044 17.3355 106.015 16.1687C106.042 15.017 105.777 13.8773 105.245 12.8554ZM102.058 19.032C101.803 19.3597 101.473 19.6215 101.096 19.7954C100.718 19.9694 100.305 20.0504 99.8903 20.0318C98.9478 20.0318 98.2146 19.6986 97.6907 19.032C97.1668 18.3655 96.9062 17.4124 96.9089 16.1727C96.9089 14.9623 97.1755 14.0211 97.7087 13.3493C97.9627 13.0233 98.2907 12.7625 98.6656 12.5887C99.0404 12.4148 99.4514 12.3328 99.8643 12.3495C100.805 12.3495 101.539 12.6894 102.064 13.3693C102.589 14.0491 102.85 14.9862 102.846 16.1807C102.842 17.4084 102.579 18.3588 102.058 19.032Z" fill="#2C2C2C"/>
    </symbol>
    <symbol id="logo-footer" width="107" height="30" viewBox="0 0 107 30" fill="none" xmlns="http://www.w3.org/2000/svg">
        <path d="M10.2477 5.45553C7.99619 9.36268 5.39676 16.4911 6.5565 23.6716C6.59201 23.8832 6.56496 24.1006 6.47866 24.297C6.39237 24.4935 6.25059 24.6604 6.07073 24.7774C5.89087 24.8944 5.68076 24.9564 5.46619 24.9557C5.25162 24.9549 5.04193 24.8916 4.86287 24.7733C2.9986 23.5117 1.56352 21.7114 0.749232 19.6128C-0.0650591 17.5142 -0.219818 15.2171 0.305615 13.0283C0.831048 10.8394 2.01167 8.86287 3.68987 7.36257C5.36807 5.86228 7.46399 4.9096 9.69782 4.63171C9.79983 4.61897 9.90337 4.63487 9.99685 4.67763C10.0903 4.72039 10.1701 4.78832 10.2271 4.87383C10.2842 4.95933 10.3164 5.05903 10.32 5.16176C10.3236 5.2645 10.2986 5.36621 10.2477 5.45553Z" fill="#5C6784"/>
        <path d="M22.1932 19.1666C22.364 19.1252 22.5413 19.1184 22.7147 19.1465C22.8882 19.1746 23.0543 19.237 23.2033 19.3301C23.3523 19.4232 23.4812 19.5452 23.5824 19.6888C23.6836 19.8324 23.7552 19.9948 23.7929 20.1664C24.1579 21.7803 24.0172 23.4674 23.3898 24.9985C22.7624 26.5296 21.6787 27.8304 20.2862 28.724C18.8936 29.6177 17.2596 30.0608 15.6063 29.9933C13.9531 29.9258 12.3607 29.3508 11.0456 28.3466C10.3768 27.8371 9.79363 27.2242 9.31801 26.531C9.05124 26.1816 8.82829 25.8008 8.65415 25.3972C7.76234 22.5059 12.0094 20.8302 12.7952 20.4563C15.1947 19.3206 17.1943 19.3446 19.1179 19.3665C19.9023 19.3898 20.6874 19.3684 21.4694 19.3026C21.7131 19.2713 21.9548 19.2259 22.1932 19.1666Z" fill="#F95738"/>
        <path d="M26.7741 13.4538C26.7152 13.5239 26.6525 13.5906 26.5862 13.6537C26.5082 13.7317 26.4302 13.8017 26.3502 13.8697C25.999 14.1647 25.5973 14.3937 25.1645 14.5456C24.9651 14.6176 24.7605 14.6744 24.5526 14.7155C21.5932 15.3374 17.4941 13.6298 12.0253 17.7569C11.3015 18.3047 10.8656 18.1348 10.6576 17.4929C10.3877 16.6691 10.4897 15.0614 10.8356 13.1838C11.5374 9.36068 13.2351 4.41376 14.8347 2.65214C15.0744 2.38472 15.3323 2.13418 15.6065 1.9023C16.2001 1.3988 16.8644 0.985147 17.5781 0.674572C19.2656 -0.0633728 21.1551 -0.200501 22.9315 0.286056C24.7079 0.772613 26.2638 1.85344 27.3398 3.34831C28.4157 4.84317 28.9467 6.66172 28.8441 8.50067C28.7415 10.3396 28.0116 12.0878 26.7761 13.4538H26.7741Z" fill="#0EA976"/>
        <path d="M43.1025 9.45203H42.9765C42.7592 10.0586 42.5199 10.7478 42.2587 11.5196C41.9974 12.2914 41.7241 13.0912 41.4388 13.9191C41.1529 14.7489 40.885 15.5527 40.639 16.3185L40.2871 17.8822C40.1851 18.2021 40.0871 18.5541 39.9712 18.94C39.8552 19.3259 39.7432 19.7178 39.6192 20.1137C39.4953 20.5096 39.3753 20.8815 39.2653 21.2335C39.1553 21.5854 39.0654 21.8993 38.9754 22.1673C38.8074 22.2173 38.6275 22.2632 38.4335 22.3052C38.2051 22.3509 37.9725 22.3724 37.7397 22.3692C37.2937 22.3929 36.8509 22.2829 36.4679 22.0533C36.3146 21.9499 36.191 21.8082 36.1093 21.6423C36.0276 21.4764 35.9906 21.2921 36.002 21.1075C36.003 20.9116 36.0327 20.7169 36.09 20.5296C36.148 20.3297 36.212 20.0997 36.278 19.8478C36.4459 19.2932 36.6732 18.6 36.9598 17.7682C37.2464 16.9364 37.5577 16.0359 37.8936 15.0668C38.2295 14.0924 38.5781 13.1092 38.9394 12.1175C39.3006 11.1257 39.6412 10.1972 39.9612 9.33206C40.2784 8.46825 40.5557 7.74174 40.793 7.15253C41.0873 7.00152 41.4008 6.8912 41.7248 6.8246C42.146 6.72443 42.5775 6.67409 43.0105 6.67464C43.5462 6.66903 44.0789 6.75422 44.5862 6.92658C45.0634 7.09455 45.3613 7.36115 45.48 7.72641C45.8332 8.65021 46.2111 9.70864 46.6137 10.9017C47.0163 12.0948 47.4282 13.3385 47.8494 14.6329C48.2694 15.926 48.6726 17.1863 49.0592 18.4141C49.4458 19.6418 49.7897 20.7549 50.091 21.7534C49.8967 21.9549 49.6596 22.11 49.3971 22.2073C49.0713 22.3296 48.7253 22.3893 48.3773 22.3832C47.8228 22.3832 47.4229 22.2779 47.1776 22.0673C46.9017 21.8032 46.7051 21.4673 46.6097 21.0975L45.5779 17.7962L45.25 16.1826C44.9834 15.3254 44.7168 14.4809 44.4502 13.6491C44.1836 12.8173 43.9356 12.0401 43.7064 11.3176C43.4717 10.5964 43.2704 9.97458 43.1025 9.45203ZM38.8694 18.5001L40.0531 16.0066H46.3538L46.8337 18.5001H38.8694Z" fill="#F7F7F9"/>
        <path d="M55.4278 12.1995H52.3285L52.4305 6.88065C52.5644 6.84665 52.7584 6.80466 53.0103 6.75467C53.2845 6.70222 53.5631 6.67677 53.8422 6.67869C54.43 6.67869 54.8586 6.784 55.1279 6.99462C55.3972 7.20524 55.5305 7.57916 55.5278 8.11638L55.4278 12.1995ZM58.2512 9.87999C59.2643 9.86536 60.265 10.1039 61.1626 10.5738C62.0416 11.0499 62.7571 11.7793 63.2161 12.6674C63.7227 13.6005 63.9753 14.7643 63.974 16.1586C63.9726 17.553 63.706 18.7294 63.1741 19.6879C62.6698 20.6053 61.8947 21.3448 60.9546 21.8054C59.9198 22.2943 58.7855 22.536 57.6413 22.5112C56.7924 22.5263 55.9462 22.4116 55.1319 22.1713C54.5015 21.9795 53.8971 21.7109 53.3323 21.3715C53.028 21.169 52.767 20.908 52.5644 20.6037C52.3956 20.3091 52.3125 19.9732 52.3245 19.6339V11.4936H55.4238V19.4339C55.7021 19.6127 56.0035 19.7527 56.3196 19.8498C56.7393 19.9817 57.1775 20.0452 57.6173 20.0378C58.0482 20.0558 58.4778 19.9793 58.876 19.8139C59.2743 19.6485 59.6315 19.398 59.9228 19.08C60.5027 18.4428 60.7926 17.4683 60.7926 16.1566C60.7926 14.8449 60.5087 13.8818 59.9408 13.2673C59.6524 12.9631 59.3023 12.724 58.914 12.5661C58.5257 12.4082 58.1082 12.335 57.6893 12.3515C57.15 12.3413 56.6155 12.4535 56.1257 12.6794C55.7054 12.8755 55.315 13.1299 54.9659 13.4352L54.766 10.9138C55.2279 10.6423 55.7122 10.4108 56.2136 10.2219C56.8653 9.98102 57.5566 9.86502 58.2512 9.87999Z" fill="#F7F7F9"/>
        <path d="M67.9811 17.7702L67.8551 15.6027L74.6097 14.6029C74.571 13.9783 74.3149 13.3869 73.8858 12.9313C73.4499 12.4621 72.8114 12.2268 71.9702 12.2254C71.5705 12.2155 71.1732 12.2899 70.8041 12.4439C70.4351 12.5979 70.1028 12.8281 69.8287 13.1192C69.2568 13.7164 68.9629 14.5696 68.9469 15.6787L69.0209 16.9884C69.1729 18.0642 69.5888 18.854 70.2686 19.3579C70.9505 19.8618 71.8103 20.1137 72.8541 20.1137C73.5222 20.1199 74.1866 20.0137 74.8196 19.7998C75.3282 19.6367 75.8115 19.4031 76.2553 19.1059C76.4843 19.2509 76.6782 19.4448 76.8232 19.6738C76.9644 19.8961 77.0387 20.1543 77.0371 20.4177C77.0348 20.6367 76.9812 20.8521 76.8804 21.0465C76.7797 21.241 76.6348 21.4091 76.4573 21.5374C75.9916 21.8898 75.4556 22.138 74.8856 22.2653C74.1512 22.4423 73.3975 22.527 72.6421 22.5172C71.4554 22.5401 70.2789 22.294 69.2009 21.7974C68.2182 21.3355 67.4004 20.584 66.8574 19.6438C66.2935 18.6867 66.0115 17.4936 66.0115 16.0646C65.9904 15.1403 66.1521 14.2208 66.4874 13.3592C66.7662 12.6436 67.1964 11.9969 67.7486 11.4633C68.3009 10.9297 68.962 10.5219 69.6867 10.2679C70.4135 10.0036 71.1809 9.86824 71.9542 9.86795C72.9651 9.84555 73.9656 10.0751 74.8656 10.5358C75.6777 10.9627 76.3574 11.6037 76.8312 12.3894C77.3199 13.2118 77.5692 14.1543 77.551 15.1108C77.551 15.5827 77.4291 15.9313 77.1851 16.1566C76.8984 16.4023 76.54 16.5488 76.1633 16.5745L67.9811 17.7702Z" fill="#F7F7F9"/>
        <path d="M87.9427 19.5339V11.6196H91.044V19.8658C91.0564 20.1894 90.9729 20.5094 90.8041 20.7856C90.601 21.0702 90.3383 21.307 90.0342 21.4795C89.5216 21.7965 88.966 22.0383 88.3846 22.1973C87.6097 22.4182 86.8067 22.5246 86.0011 22.5132C84.8117 22.5396 83.6303 22.3119 82.5359 21.8454C81.5739 21.4178 80.7743 20.6932 80.2544 19.7778C79.7211 18.8447 79.4545 17.6643 79.4545 16.2366C79.4545 14.7703 79.7278 13.5705 80.2744 12.6374C80.7779 11.7358 81.5455 11.0101 82.4739 10.5579C83.435 10.1047 84.4867 9.87626 85.5492 9.89C86.1238 9.88372 86.6962 9.9605 87.2488 10.1179C87.6872 10.236 88.1072 10.4143 88.4966 10.6478V13.2833C88.1849 13.0046 87.8269 12.7826 87.4388 12.6274C86.9584 12.4354 86.4444 12.3416 85.9271 12.3515C85.3399 12.3463 84.7601 12.4835 84.2375 12.7514C83.7157 13.0304 83.2998 13.473 83.0537 14.0111C82.7416 14.7207 82.5946 15.4919 82.6238 16.2666C82.6238 17.577 82.9264 18.5348 83.5316 19.14C84.1368 19.7452 84.952 20.0471 85.9771 20.0458C86.369 20.0541 86.76 20.0036 87.1369 19.8958C87.4192 19.8086 87.6899 19.687 87.9427 19.5339ZM91.044 12.2495L87.9427 12.2675L88.0447 6.86866C88.1626 6.83467 88.3506 6.79267 88.6125 6.74268C88.8821 6.69142 89.156 6.66598 89.4304 6.6667C90.0302 6.6667 90.4721 6.77268 90.7421 6.98263C91.012 7.19259 91.142 7.56651 91.142 8.10439L91.044 12.2495Z" fill="#F7F7F9"/>
        <path d="M105.245 12.8553C104.755 11.9334 104.012 11.1704 103.103 10.6558C102.119 10.1181 101.011 9.8485 99.8901 9.87397C98.7668 9.84963 97.6561 10.1147 96.6648 10.6438C95.7479 11.1469 94.9953 11.9036 94.4973 12.8233C93.9533 13.8555 93.684 15.0103 93.7155 16.1766C93.7155 17.487 93.9714 18.6127 94.4833 19.5539C94.9761 20.4734 95.7248 21.2304 96.6388 21.7334C97.6457 22.2396 98.7571 22.5033 99.8841 22.5033C101.011 22.5033 102.123 22.2396 103.129 21.7334C104.04 21.2259 104.781 20.4607 105.259 19.5339C105.784 18.4915 106.044 17.3355 106.015 16.1686C106.042 15.0169 105.777 13.8772 105.245 12.8553ZM102.058 19.032C101.803 19.3596 101.473 19.6214 101.095 19.7954C100.718 19.9693 100.305 20.0504 99.8901 20.0318C98.9477 20.0318 98.2145 19.6985 97.6906 19.032C97.1667 18.3654 96.9061 17.4123 96.9088 16.1726C96.9088 14.9622 97.1754 14.0211 97.7086 13.3492C97.9626 13.0232 98.2906 12.7625 98.6655 12.5886C99.0403 12.4147 99.4513 12.3327 99.8641 12.3494C100.805 12.3494 101.538 12.6894 102.064 13.3692C102.589 14.0491 102.849 14.9862 102.845 16.1806C102.841 17.4083 102.579 18.3588 102.058 19.032Z" fill="#F7F7F9"/>
    </symbol>

    <symbol id="profile" width="28" height="28" viewBox="0 0 28 28" fill="none" xmlns="http://www.w3.org/2000/svg">
        <path d="M21.8626 23.8342C21.9738 23.7453 22.0187 23.5963 21.9686 23.463C21.4256 22.0192 20.3337 20.7464 18.8431 19.8258C17.2761 18.8579 15.3562 18.3333 13.381 18.3333C11.4059 18.3333 9.48595 18.8579 7.91898 19.8258C6.42838 20.7464 5.33642 22.0192 4.79347 23.463C4.74337 23.5963 4.78824 23.7453 4.89944 23.8342C9.8594 27.7973 16.9026 27.7973 21.8626 23.8342Z" fill="#5C6784" stroke="#5C6784" stroke-width="0.2" stroke-linecap="round"/>
        <circle cx="14" cy="14" r="13" stroke="#5C6784" stroke-width="1.2"/>
        <ellipse cx="14.0001" cy="11.111" rx="4.33333" ry="4.33333" fill="#5C6784"/>
    </symbol>
    <symbol id="arrow" width="6" height="10" viewBox="0 0 6 10" fill="none" xmlns="http://www.w3.org/2000/svg">
        <path d="M-3.8557e-07 1.17918L3.71005 5L-5.15436e-08 8.82082L1.14496 10L6 5L1.14496 -5.00476e-08L-3.8557e-07 1.17918Z" fill="#5C6784"/>
    </symbol>
    <symbol id="footer-basket" width="20" height="20" viewBox="0 0 20 20" fill="none" xmlns="http://www.w3.org/2000/svg">
        <path d="M19.8249 4.54625C19.6766 4.36375 19.4539 4.25781 19.2187 4.25781H18.9372L14.9082 0.228837C14.6031 -0.0762791 14.1084 -0.0762791 13.8033 0.228837L12.1096 1.92254L10.4158 0.228837C10.1107 -0.0762791 9.61604 -0.0762791 9.31096 0.228837L5.28198 4.25781H5.0678L5.00983 3.72531L5.00776 3.70821C4.73042 1.59419 2.91339 9.76955e-06 0.781249 9.76955e-06C0.349765 9.76955e-06 0 0.349775 0 0.781258C0 1.21274 0.349765 1.56251 0.781249 1.56251C2.12914 1.56251 3.27824 2.56833 3.45749 3.90344L4.3862 12.4355C3.57421 12.8041 3.00781 13.622 3.00781 14.5703C3.00781 14.5769 3.00863 14.5833 3.00878 14.5898C3.00863 14.5964 3.00781 14.6028 3.00781 14.6094C3.00781 15.9017 4.05921 16.9531 5.35155 16.9531H5.67018C5.59065 17.1862 5.54686 17.4356 5.54686 17.6953C5.54686 18.9661 6.58077 20 7.85155 20C9.12233 20 10.1562 18.9661 10.1562 17.6953C10.1562 17.4356 10.1124 17.1862 10.0329 16.9531H13.4045C13.325 17.1862 13.2812 17.4356 13.2812 17.6953C13.2812 18.9661 14.3151 20 15.5859 20C16.8567 20 17.8906 18.9661 17.8906 17.6953C17.8906 16.4245 16.8567 15.3906 15.5859 15.3906H5.35155C4.92077 15.3906 4.5703 15.0401 4.5703 14.6094C4.5703 14.6028 4.56948 14.5964 4.56933 14.5898C4.56948 14.5833 4.5703 14.5769 4.5703 14.5703C4.5703 14.1395 4.92077 13.789 5.35155 13.789H15.3254C16.7122 13.789 17.985 12.931 18.5678 11.603C18.7412 11.208 18.5615 10.7471 18.1665 10.5737C17.7714 10.4002 17.3105 10.5799 17.1371 10.975C16.8085 11.7236 16.0805 12.2265 15.3254 12.2265H5.93518L5.23788 5.82031H18.2577L17.8755 7.653C17.7874 8.07538 18.0584 8.48921 18.4807 8.5773C18.5346 8.58855 18.5882 8.5939 18.6411 8.5939C19.0032 8.5939 19.3282 8.34058 19.4051 7.97202L19.9836 5.19859C20.0315 4.96836 19.9732 4.72875 19.8249 4.54625ZM15.5859 16.9531C15.9952 16.9531 16.3281 17.286 16.3281 17.6953C16.3281 18.1045 15.9952 18.4375 15.5859 18.4375C15.1767 18.4375 14.8437 18.1045 14.8437 17.6953C14.8437 17.286 15.1767 16.9531 15.5859 16.9531ZM7.85155 16.9531C8.2608 16.9531 8.59373 17.2861 8.59373 17.6953C8.59373 18.1045 8.2608 18.4375 7.85155 18.4375C7.44229 18.4375 7.10936 18.1045 7.10936 17.6953C7.10936 17.286 7.44229 16.9531 7.85155 16.9531ZM9.77432 4.25781H7.4917L9.86342 1.8861L11.0047 3.02743L9.77432 4.25781ZM11.984 4.25781L14.3558 1.8861L16.7274 4.25781H11.984Z" fill="#212121"/>
    </symbol>
    <symbol id="footer-different" width="24" height="24" viewBox="0 0 24 24" fill="none" xmlns="http://www.w3.org/2000/svg">
        <path d="M12 2C6.47715 2 2 6.47715 2 12C2 17.5229 6.47715 22 12 22C17.5229 22 22 17.5229 22 12C22 6.47715 17.5229 2 12 2ZM12 20.75C7.1675 20.75 3.25 16.8325 3.25 12C3.25 7.1675 7.1675 3.25 12 3.25C16.8325 3.25 20.75 7.1675 20.75 12C20.75 16.8325 16.8325 20.75 12 20.75Z" fill="#212121"/>
        <path d="M12 13.25C12.6904 13.25 13.25 12.6904 13.25 12C13.25 11.3096 12.6904 10.75 12 10.75C11.3096 10.75 10.75 11.3096 10.75 12C10.75 12.6904 11.3096 13.25 12 13.25Z" fill="#212121"/>
        <path d="M16.375 13.25C17.0654 13.25 17.625 12.6904 17.625 12C17.625 11.3096 17.0654 10.75 16.375 10.75C15.6846 10.75 15.125 11.3096 15.125 12C15.125 12.6904 15.6846 13.25 16.375 13.25Z" fill="#212121"/>
        <path d="M7.625 13.25C8.31536 13.25 8.875 12.6904 8.875 12C8.875 11.3096 8.31536 10.75 7.625 10.75C6.93464 10.75 6.375 11.3096 6.375 12C6.375 12.6904 6.93464 13.25 7.625 13.25Z" fill="#212121"/>
    </symbol>
    <symbol id="footer-likes" width="20" height="18" viewBox="0 0 20 18" fill="none" xmlns="http://www.w3.org/2000/svg">
        <path d="M10 18C9.71527 18 9.44077 17.8957 9.22684 17.7061C8.41888 16.9914 7.63992 16.3198 6.95267 15.7274L6.94916 15.7243C4.93423 13.9873 3.19427 12.4873 1.98364 11.0096C0.630341 9.35765 0 7.79138 0 6.08032C0 4.41788 0.563507 2.88418 1.58661 1.76153C2.62192 0.625613 4.04251 0 5.58716 0C6.74164 0 7.79892 0.369224 8.72955 1.09733C9.19922 1.46486 9.62494 1.91466 10 2.43932C10.3752 1.91466 10.8008 1.46486 11.2706 1.09733C12.2012 0.369224 13.2585 0 14.413 0C15.9575 0 17.3782 0.625613 18.4135 1.76153C19.4366 2.88418 20 4.41788 20 6.08032C20 7.79138 19.3698 9.35765 18.0165 11.0094C16.8059 12.4873 15.0661 13.9872 13.0515 15.724C12.363 16.3173 11.5828 16.99 10.773 17.7064C10.5592 17.8957 10.2846 18 10 18ZM5.58716 1.18516C4.37363 1.18516 3.25882 1.67509 2.44781 2.56481C1.62476 3.46796 1.17142 4.71641 1.17142 6.08032C1.17142 7.5194 1.70013 8.80643 2.88559 10.2534C4.03137 11.652 5.73563 13.1212 7.70889 14.8224L7.71256 14.8255C8.4024 15.4202 9.18442 16.0944 9.99832 16.8144C10.8171 16.0931 11.6003 15.4177 12.2916 14.8221C14.2647 13.1209 15.9688 11.652 17.1146 10.2534C18.2999 8.80643 18.8286 7.5194 18.8286 6.08032C18.8286 4.71641 18.3752 3.46796 17.5522 2.56481C16.7413 1.67509 15.6264 1.18516 14.413 1.18516C13.524 1.18516 12.7078 1.47103 11.9872 2.03475C11.3449 2.53734 10.8975 3.17268 10.6352 3.61723C10.5003 3.84583 10.2629 3.98228 10 3.98228C9.73709 3.98228 9.49966 3.84583 9.36478 3.61723C9.10263 3.17268 8.65524 2.53734 8.01285 2.03475C7.29218 1.47103 6.47598 1.18516 5.58716 1.18516Z" fill="#212121"/>
    </symbol>
    <symbol id="footer-main" width="24" height="24" viewBox="0 0 24 24" fill="none" xmlns="http://www.w3.org/2000/svg">
        <path d="M5.54289 20.0404L5.18934 20.394L5.54289 20.0404ZM19.0404 20.0404L18.6869 19.6869L19.0404 20.0404ZM18.8333 10.0417V18.3333H19.8333V10.0417H18.8333ZM17.3333 19.8333H7.25V20.8333H17.3333V19.8333ZM5.75 18.3333V10.0417H4.75V18.3333H5.75ZM7.25 19.8333C6.76446 19.8333 6.4506 19.8323 6.21935 19.8012C6.00248 19.772 5.93451 19.7249 5.89645 19.6869L5.18934 20.394C5.44417 20.6488 5.75835 20.7482 6.0861 20.7923C6.39948 20.8344 6.79273 20.8333 7.25 20.8333V19.8333ZM4.75 18.3333C4.75 18.7906 4.74894 19.1838 4.79107 19.4972C4.83514 19.825 4.93451 20.1392 5.18934 20.394L5.89645 19.6869C5.85838 19.6488 5.81131 19.5808 5.78215 19.364C5.75106 19.1327 5.75 18.8189 5.75 18.3333H4.75ZM18.8333 18.3333C18.8333 18.8189 18.8323 19.1327 18.8012 19.364C18.772 19.5808 18.7249 19.6488 18.6869 19.6869L19.394 20.394C19.6488 20.1392 19.7482 19.825 19.7923 19.4972C19.8344 19.1838 19.8333 18.7906 19.8333 18.3333H18.8333ZM17.3333 20.8333C17.7906 20.8333 18.1839 20.8344 18.4972 20.7923C18.825 20.7482 19.1392 20.6488 19.394 20.394L18.6869 19.6869C18.6488 19.7249 18.5808 19.772 18.364 19.8012C18.1327 19.8323 17.8189 19.8333 17.3333 19.8333V20.8333Z" fill="#212121"/>
        <path d="M11.5833 13.7917H12.9999V12.7917H11.5833V13.7917ZM14.4999 15.2917V19.7917H15.4999V15.2917H14.4999ZM9.08325 15.2917V19.7917H10.0833V15.2917H9.08325ZM12.9999 13.7917C13.8283 13.7917 14.4999 14.4632 14.4999 15.2917H15.4999C15.4999 13.9109 14.3806 12.7917 12.9999 12.7917V13.7917ZM11.5833 12.7917C10.2025 12.7917 9.08325 13.9109 9.08325 15.2917H10.0833C10.0833 14.4632 10.7548 13.7917 11.5833 13.7917V12.7917Z" fill="#212121"/>
        <path d="M12.6357 8.8042L12.1387 8.85941L12.6357 8.8042ZM13.0615 10.3285L12.728 10.701L13.0615 10.3285ZM11.9477 8.8042L11.4507 8.74898L11.9477 8.8042ZM11.5219 10.3285L11.8553 10.701L11.5219 10.3285ZM16.7001 10.2091L16.3101 9.8962L16.7001 10.2091ZM7.95752 8.14947L7.46943 8.04101L7.95752 8.14947ZM7.88324 10.2091L8.27326 9.8962L7.88324 10.2091ZM8.217 6.56678L8.06045 7.04164L8.217 6.56678ZM18.6259 10.5451L18.7629 10.0642L18.6259 10.5451ZM17.8589 9.70344L18.3158 9.50037L17.8589 9.70344ZM18.1323 10.2243L17.7485 10.5448L18.1323 10.2243ZM16.8947 7.53395L16.4378 7.73702L16.8947 7.53395ZM16.5167 7.65856L16.0286 7.76703L16.5167 7.65856ZM16.3663 6.56678L16.2098 6.09192L16.3663 6.56678ZM5.95747 10.5451L5.82047 10.0642L5.95747 10.5451ZM6.45101 10.2243L6.83478 10.5448L6.45101 10.2243ZM12.0929 7.49732L11.5959 7.44211L12.0929 7.49732ZM12.4904 7.49732L12.9874 7.44211L12.4904 7.49732ZM12.2917 6.51387V7.01387V6.51387ZM3.32769 7.4854L2.86811 7.28844L3.32769 7.4854ZM2.77858 9.18959L3.27732 9.15417L2.77858 9.18959ZM21.2556 7.4854L20.7961 7.68236L21.2556 7.4854ZM21.8048 9.18959L21.306 9.15417L21.8048 9.18959ZM20.9956 10.4167L21.2246 10.8612L20.9956 10.4167ZM19.1155 3.33032L18.8403 3.74774L19.1155 3.33032ZM4.211 5.42432L3.75143 5.22736L4.211 5.42432ZM5.46781 3.33032L5.19256 2.9129L5.46781 3.33032ZM7.88758 3.5H16.6957V2.5H7.88758V3.5ZM19.9128 5.62128L20.7961 7.68236L21.7152 7.28844L20.8319 5.22736L19.9128 5.62128ZM3.78726 7.68236L4.67058 5.62128L3.75143 5.22736L2.86811 7.28844L3.78726 7.68236ZM18.3158 9.50037L17.3516 7.33088L16.4378 7.73702L17.402 9.90651L18.3158 9.50037ZM7.23171 7.33088L6.26749 9.50037L7.1813 9.90651L8.14552 7.73702L7.23171 7.33088ZM8.44562 8.25794L8.55471 7.76702L7.57852 7.55009L7.46943 8.04101L8.44562 8.25794ZM16.0286 7.76703L16.1377 8.25794L17.1139 8.04101L17.0048 7.5501L16.0286 7.76703ZM11.5959 7.44211L11.4507 8.74898L12.4446 8.85941L12.5898 7.55254L11.5959 7.44211ZM9.95991 10.0833H9.9099V11.0833H9.95991V10.0833ZM14.6734 10.0833H14.6234V11.0833H14.6734V10.0833ZM13.1326 8.74898L12.9874 7.44211L11.9935 7.55254L12.1387 8.85941L13.1326 8.74898ZM14.6234 10.0833C14.1844 10.0833 13.9028 10.0824 13.6935 10.0555C13.4983 10.0305 13.4329 9.98992 13.3949 9.9559L12.728 10.701C12.9747 10.9219 13.2646 11.0087 13.5663 11.0474C13.854 11.0843 14.211 11.0833 14.6234 11.0833V10.0833ZM12.1387 8.85941C12.1843 9.26934 12.2227 9.62428 12.2911 9.90607C12.3629 10.2017 12.4812 10.4802 12.728 10.701L13.3949 9.9559C13.3569 9.92188 13.3093 9.86136 13.2629 9.67013C13.2131 9.46507 13.1811 9.18531 13.1326 8.74898L12.1387 8.85941ZM11.4507 8.74898C11.4023 9.18531 11.3702 9.46507 11.3204 9.67013C11.274 9.86136 11.2264 9.92188 11.1884 9.9559L11.8553 10.701C12.1021 10.4802 12.2204 10.2017 12.2922 9.90607C12.3606 9.62428 12.3991 9.26934 12.4446 8.85941L11.4507 8.74898ZM9.95991 11.0833C10.3724 11.0833 10.7294 11.0843 11.017 11.0474C11.3187 11.0087 11.6086 10.9219 11.8553 10.701L11.1884 9.9559C11.1504 9.98992 11.085 10.0305 10.8898 10.0555C10.6805 10.0824 10.3989 10.0833 9.95991 10.0833V11.0833ZM16.1377 8.25794C16.2659 8.83495 16.3491 9.21472 16.3706 9.49812C16.3911 9.76809 16.3462 9.8511 16.3101 9.8962L17.0901 10.5219C17.3542 10.1927 17.397 9.80773 17.3677 9.42237C17.3395 9.05042 17.2354 8.58754 17.1139 8.04101L16.1377 8.25794ZM14.6734 11.0833C15.2333 11.0833 15.7077 11.0846 16.077 11.0315C16.4595 10.9764 16.8261 10.8511 17.0901 10.5219L16.3101 9.8962C16.2739 9.94129 16.2026 10.0031 15.9346 10.0416C15.6533 10.0821 15.2645 10.0833 14.6734 10.0833V11.0833ZM7.46943 8.04101C7.34798 8.58754 7.24386 9.05042 7.2156 9.42237C7.18633 9.80773 7.22916 10.1927 7.49322 10.5219L8.27326 9.8962C8.23709 9.8511 8.19222 9.76809 8.21273 9.49812C8.23426 9.21472 8.31739 8.83495 8.44562 8.25794L7.46943 8.04101ZM9.9099 10.0833C9.31882 10.0833 8.93005 10.0821 8.64873 10.0416C8.38074 10.0031 8.30943 9.94129 8.27326 9.8962L7.49322 10.5219C7.75728 10.8511 8.12383 10.9764 8.50637 11.0315C8.87559 11.0846 9.35003 11.0833 9.9099 11.0833V10.0833ZM8.14552 7.73702C8.29621 7.39796 8.3992 7.16684 8.47475 7.02165C8.51461 6.94503 8.531 6.92388 8.52744 6.92826C8.52678 6.92907 8.49749 6.96681 8.43794 7.00235C8.36996 7.04291 8.22928 7.0973 8.06045 7.04164L8.37354 6.09192C8.18323 6.02918 8.01914 6.08774 7.9255 6.14362C7.84028 6.19448 7.78307 6.25867 7.75189 6.29698C7.68728 6.37635 7.63226 6.47432 7.58764 6.56009C7.49422 6.73964 7.37598 7.00627 7.23171 7.33088L8.14552 7.73702ZM8.55471 7.76702C8.63177 7.42026 8.69528 7.13559 8.72695 6.93568C8.74208 6.84019 8.75611 6.72871 8.75138 6.62648C8.74909 6.57714 8.74127 6.49151 8.703 6.39994C8.66095 6.29932 8.56386 6.15466 8.37354 6.09192L8.06045 7.04164C7.89162 6.98599 7.81087 6.8586 7.78034 6.78556C7.7536 6.72157 7.7525 6.67382 7.75245 6.67278C7.75219 6.66713 7.75279 6.69389 7.73928 6.77919C7.71366 6.94085 7.65901 7.18789 7.57852 7.55009L8.55471 7.76702ZM19.2129 10.0833C18.8808 10.0833 18.8139 10.0787 18.7629 10.0642L18.4889 11.0259C18.7065 11.0879 18.9414 11.0833 19.2129 11.0833V10.0833ZM17.402 9.90651C17.5123 10.1546 17.6035 10.3711 17.7485 10.5448L18.5161 9.90383C18.4821 9.86308 18.4507 9.80388 18.3158 9.50037L17.402 9.90651ZM18.7629 10.0642C18.6664 10.0367 18.5804 9.98083 18.5161 9.90383L17.7485 10.5448C17.9415 10.7758 18.1994 10.9435 18.4889 11.0259L18.7629 10.0642ZM17.3516 7.33088C17.2074 7.00627 17.0891 6.73964 16.9957 6.56009C16.9511 6.47432 16.8961 6.37635 16.8314 6.29698C16.8003 6.25867 16.7431 6.19448 16.6578 6.14362C16.5642 6.08774 16.4001 6.02918 16.2098 6.09192L16.5229 7.04164C16.354 7.0973 16.2134 7.04291 16.1454 7.00235C16.0858 6.96681 16.0566 6.92907 16.0559 6.92826C16.0523 6.92388 16.0687 6.94504 16.1086 7.02165C16.1841 7.16684 16.2871 7.39796 16.4378 7.73702L17.3516 7.33088ZM17.0048 7.5501C16.9243 7.18789 16.8697 6.94085 16.8441 6.77919C16.8305 6.69389 16.8311 6.66713 16.8309 6.67278C16.8308 6.67382 16.8297 6.72157 16.803 6.78556C16.7725 6.8586 16.6917 6.98599 16.5229 7.04164L16.2098 6.09192C16.0195 6.15466 15.9224 6.29932 15.8803 6.39994C15.8421 6.49151 15.8342 6.57714 15.832 6.62648C15.8272 6.72871 15.8412 6.84019 15.8564 6.93568C15.8881 7.13559 15.9516 7.42026 16.0286 7.76703L17.0048 7.5501ZM5.37045 11.0833C5.64191 11.0833 5.87687 11.0879 6.09448 11.0259L5.82047 10.0642C5.76941 10.0787 5.70258 10.0833 5.37045 10.0833V11.0833ZM6.26749 9.50037C6.1326 9.80388 6.10127 9.86308 6.06723 9.90383L6.83478 10.5448C6.97982 10.3711 7.07105 10.1546 7.1813 9.90651L6.26749 9.50037ZM6.09448 11.0259C6.38392 10.9435 6.64187 10.7758 6.83478 10.5448L6.06723 9.90383C6.00293 9.98083 5.91695 10.0367 5.82047 10.0642L6.09448 11.0259ZM12.5898 7.55254C12.6272 7.2162 12.6525 6.99122 12.6782 6.84801C12.6918 6.7719 12.6996 6.75587 12.6944 6.76828C12.6921 6.77367 12.673 6.82076 12.6234 6.87309C12.5658 6.93389 12.4528 7.01387 12.2917 7.01387V6.01387C12.1082 6.01387 11.9744 6.1041 11.8974 6.18539C11.8284 6.2582 11.7912 6.33603 11.7718 6.3824C11.7323 6.47676 11.7096 6.58366 11.6939 6.67146C11.6608 6.85606 11.6314 7.12281 11.5959 7.44211L12.5898 7.55254ZM12.9874 7.44211C12.9519 7.12281 12.9226 6.85606 12.8894 6.67146C12.8737 6.58366 12.851 6.47676 12.8115 6.3824C12.7921 6.33603 12.7549 6.2582 12.6859 6.18539C12.6089 6.1041 12.4752 6.01387 12.2917 6.01387V7.01387C12.1305 7.01387 12.0175 6.93389 11.9599 6.87309C11.9104 6.82076 11.8912 6.77367 11.889 6.76828C11.8838 6.75587 11.8915 6.7719 11.9052 6.84801C11.9308 6.99122 11.9561 7.2162 11.9935 7.55254L12.9874 7.44211ZM2.86811 7.28844C2.67951 7.72851 2.52697 8.08364 2.42699 8.374C2.32703 8.66433 2.2598 8.94292 2.27983 9.22501L3.27732 9.15417C3.27159 9.07344 3.28729 8.94706 3.37251 8.69956C3.45772 8.4521 3.59261 8.13654 3.78726 7.68236L2.86811 7.28844ZM5.37045 10.0833C4.87632 10.0833 4.53314 10.083 4.27212 10.0639C4.01106 10.0447 3.88872 10.0093 3.81677 9.97227L3.35873 10.8612C3.61011 10.9907 3.89267 11.0387 4.1989 11.0612C4.50517 11.0837 4.89167 11.0833 5.37045 11.0833V10.0833ZM2.27983 9.22501C2.32928 9.92132 2.7382 10.5415 3.35873 10.8612L3.81677 9.97227C3.5065 9.8124 3.30204 9.50232 3.27732 9.15417L2.27983 9.22501ZM20.7961 7.68236C20.9907 8.13654 21.1256 8.4521 21.2108 8.69956C21.296 8.94706 21.3117 9.07344 21.306 9.15417L22.3035 9.22501C22.3235 8.94292 22.2563 8.66433 22.1563 8.374C22.0564 8.08364 21.9038 7.72851 21.7152 7.28844L20.7961 7.68236ZM19.2129 11.0833C19.6917 11.0833 20.0782 11.0837 20.3844 11.0612C20.6907 11.0387 20.9732 10.9907 21.2246 10.8612L20.7666 9.97227C20.6946 10.0093 20.5723 10.0447 20.3112 10.0639C20.0502 10.083 19.707 10.0833 19.2129 10.0833V11.0833ZM21.306 9.15417C21.2813 9.50232 21.0768 9.8124 20.7666 9.97227L21.2246 10.8612C21.8451 10.5415 22.2541 9.92132 22.3035 9.22501L21.306 9.15417ZM16.6957 3.5C17.3461 3.5 17.7944 3.50067 18.1438 3.5384C18.4812 3.57483 18.68 3.64202 18.8403 3.74774L19.3908 2.9129C19.0501 2.68829 18.6786 2.59033 18.2512 2.54418C17.8357 2.49933 17.3246 2.5 16.6957 2.5V3.5ZM20.8319 5.22736C20.5842 4.64938 20.3835 4.17928 20.1786 3.81511C19.9678 3.44037 19.7314 3.1375 19.3908 2.9129L18.8403 3.74774C19.0006 3.85345 19.1407 4.00969 19.307 4.30542C19.4794 4.61173 19.6565 5.02347 19.9128 5.62128L20.8319 5.22736ZM7.88758 2.5C7.25876 2.5 6.74759 2.49933 6.33217 2.54418C5.90468 2.59033 5.53318 2.68829 5.19256 2.9129L5.74306 3.74774C5.90338 3.64202 6.10215 3.57483 6.43951 3.5384C6.78894 3.50067 7.23719 3.5 7.88758 3.5V2.5ZM4.67058 5.62128C4.92678 5.02347 5.10397 4.61173 5.2763 4.30542C5.44267 4.00969 5.58273 3.85345 5.74306 3.74774L5.19256 2.9129C4.85195 3.1375 4.61556 3.44037 4.40475 3.81511C4.19988 4.17928 3.99914 4.64938 3.75143 5.22736L4.67058 5.62128Z" fill="#212121"/>
    </symbol>
    <symbol id="footer-search" width="19" height="19" viewBox="0 0 19 19" fill="none" xmlns="http://www.w3.org/2000/svg">
        <path d="M11.9047 0C8.20847 0 5.20392 3.04778 5.20392 6.76564C5.20392 8.34357 5.74431 9.7702 6.63054 10.9374L0.275597 17.3572C-0.0918657 17.7463 -0.0918657 18.3515 0.275597 18.719C0.470136 18.9135 0.707908 19 0.945678 19C1.20506 19 1.44283 18.9135 1.63737 18.719L7.99232 12.2776C9.09471 13.0774 10.4349 13.5313 11.8831 13.5313C15.5793 13.5313 18.5839 10.4835 18.5839 6.76564C18.6055 3.02616 15.601 0 11.9047 0ZM11.9047 11.8237C9.15955 11.8237 6.93316 9.55403 6.93316 6.76564C6.93316 3.97724 9.15955 1.70763 11.9047 1.70763C14.6499 1.70763 16.8763 3.97724 16.8763 6.76564C16.8763 9.55403 14.6499 11.8237 11.9047 11.8237Z" fill="#212121"/>
    </symbol>
    <symbol id="cafe-arrow" width="9" height="15" viewBox="0 0 9 15" fill="none" xmlns="http://www.w3.org/2000/svg">
        <path d="M-5.78355e-07 1.76877L5.56508 7.5L-7.73154e-08 13.2312L1.71743 15L9 7.5L1.71743 -1.02875e-06L-5.78355e-07 1.76877Z" fill="#5C6784"/>
    </symbol>
    <symbol id="cafe-heart" width="16" height="16" viewBox="0 0 16 16" fill="none" xmlns="http://www.w3.org/2000/svg">
        <path d="M14.8326 2.39185C14.0435 1.45068 12.9487 0.932373 11.75 0.932373C10.0641 0.932373 8.99678 1.99067 8.39828 2.8785C8.243 3.10888 8.11091 3.33988 8 3.55726C7.88909 3.33988 7.75703 3.10888 7.60172 2.8785C7.00322 1.99067 5.93588 0.932373 4.25 0.932373C3.05131 0.932373 1.95653 1.45072 1.16734 2.39188C0.414594 3.28969 0 4.49212 0 5.77764C0 7.17698 0.519781 8.4785 1.63578 9.87353C2.63319 11.1204 4.06809 12.4056 5.72969 13.8938C6.34884 14.4483 6.98913 15.0218 7.67078 15.6487L7.69125 15.6676C7.77963 15.7489 7.88981 15.7895 8 15.7895C8.11019 15.7895 8.22038 15.7489 8.30875 15.6676L8.32922 15.6487C9.01088 15.0218 9.65116 14.4484 10.2704 13.8937C11.9319 12.4056 13.3668 11.1204 14.3642 9.87353C15.4802 8.47847 16 7.17698 16 5.77764C16 4.49212 15.5854 3.28969 14.8326 2.39185ZM9.66228 13.1438C9.12853 13.6218 8.57922 14.1138 8 14.6431C7.42081 14.1139 6.87147 13.6218 6.33763 13.1437C3.08578 10.2312 0.9375 8.30701 0.9375 5.77764C0.9375 4.73216 1.26891 3.7611 1.87069 3.04338C2.47938 2.31752 3.32434 1.91775 4.25 1.91775C5.53528 1.91775 6.36613 2.75 6.83675 3.44818C7.25891 4.07435 7.47919 4.70558 7.55431 4.94789C7.61716 5.15071 7.79706 5.28798 8 5.28798C8.20294 5.28798 8.38284 5.15071 8.44569 4.94789C8.52081 4.70558 8.74109 4.07435 9.16325 3.44814C9.63387 2.75 10.4647 1.91775 11.75 1.91775C12.6757 1.91775 13.5206 2.31752 14.1293 3.04338C14.7311 3.7611 15.0625 4.73216 15.0625 5.77764C15.0625 8.30701 12.9142 10.2312 9.66228 13.1438Z" fill="#5C6784"/>
    </symbol>


    <symbol id="cafe-filter" width="20" height="20" viewBox="0 0 20 20" fill="none" xmlns="http://www.w3.org/2000/svg">
        <path d="M16.9037 4.39324H7.97944C7.73409 3.66453 7.04483 3.13805 6.23444 3.13805C5.42405 3.13805 4.73479 3.66453 4.48944 4.39324H3.09644C2.77284 4.39324 2.5105 4.65559 2.5105 4.97918C2.5105 5.30277 2.77284 5.56512 3.09644 5.56512H4.48948C4.73483 6.29383 5.42409 6.82031 6.23448 6.82031C7.04487 6.82031 7.73413 6.29383 7.97948 5.56512H16.9037C17.2273 5.56512 17.4897 5.30277 17.4897 4.97918C17.4897 4.65559 17.2273 4.39324 16.9037 4.39324ZM6.23444 5.64844C5.86542 5.64844 5.56519 5.3482 5.56519 4.97918C5.56519 4.61016 5.86542 4.30992 6.23444 4.30992C6.60347 4.30992 6.9037 4.61016 6.9037 4.97918C6.9037 5.3482 6.60347 5.64844 6.23444 5.64844Z" fill="#454545"/>
        <path d="M16.9037 9.41412H15.5107C15.2653 8.6854 14.576 8.15892 13.7657 8.15892C12.9553 8.15892 12.266 8.6854 12.0207 9.41412H3.09644C2.77284 9.41412 2.5105 9.67646 2.5105 10.0001C2.5105 10.3236 2.77284 10.586 3.09644 10.586H12.0207C12.266 11.3147 12.9553 11.8412 13.7657 11.8412C14.576 11.8412 15.2653 11.3147 15.5107 10.586H16.9037C17.2273 10.586 17.4897 10.3236 17.4897 10.0001C17.4897 9.67646 17.2273 9.41412 16.9037 9.41412ZM13.7657 10.6693C13.3967 10.6693 13.0964 10.3691 13.0964 10.0001C13.0964 9.63103 13.3967 9.3308 13.7657 9.3308C14.1347 9.3308 14.4349 9.63103 14.4349 10.0001C14.4349 10.3691 14.1347 10.6693 13.7657 10.6693Z" fill="#454545"/>
        <path d="M16.9037 14.4349H10.4899C10.2445 13.7061 9.55526 13.1797 8.74487 13.1797C7.93448 13.1797 7.24522 13.7061 6.99987 14.4349H3.09644C2.77284 14.4349 2.5105 14.6972 2.5105 15.0208C2.5105 15.3444 2.77284 15.6067 3.09644 15.6067H6.99987C7.24522 16.3354 7.93448 16.8619 8.74487 16.8619C9.55526 16.8619 10.2445 16.3354 10.4899 15.6067H16.9037C17.2273 15.6067 17.4897 15.3444 17.4897 15.0208C17.4897 14.6972 17.2273 14.4349 16.9037 14.4349ZM8.74487 15.6901C8.37585 15.6901 8.07561 15.3899 8.07561 15.0208C8.07561 14.6518 8.37585 14.3516 8.74487 14.3516C9.1139 14.3516 9.41413 14.6518 9.41413 15.0208C9.41413 15.3898 9.1139 15.6901 8.74487 15.6901Z" fill="#454545"/>
    </symbol>
    <symbol id="header-shop" width="24" height="24" viewBox="0 0 24 24" fill="none" xmlns="http://www.w3.org/2000/svg">
        <rect x="4" y="4" width="6" height="7" rx="1" stroke="white" stroke-width="2" stroke-linejoin="round"/>
        <rect x="4" y="15" width="6" height="5" rx="1" stroke="white" stroke-width="2" stroke-linejoin="round"/>
        <rect x="14" y="4" width="6" height="5" rx="1" stroke="white" stroke-width="2" stroke-linejoin="round"/>
        <rect x="14" y="13" width="6" height="7" rx="1" stroke="white" stroke-width="2" stroke-linejoin="round"/>
    </symbol>
    <symbol id="header-search" width="20" height="20" viewBox="0 0 20 20" fill="none" xmlns="http://www.w3.org/2000/svg">
        <g clip-path="url(#clip0_4718_4915)">
        <path d="M8.80758 0C3.95121 0 0 3.95121 0 8.80758C0 13.6642 3.95121 17.6152 8.80758 17.6152C13.6642 17.6152 17.6152 13.6642 17.6152 8.80758C17.6152 3.95121 13.6642 0 8.80758 0ZM8.80758 15.9892C4.8477 15.9892 1.62602 12.7675 1.62602 8.80762C1.62602 4.84773 4.8477 1.62602 8.80758 1.62602C12.7675 1.62602 15.9891 4.8477 15.9891 8.80758C15.9891 12.7675 12.7675 15.9892 8.80758 15.9892Z" fill="#878787"/>
        <path d="M19.7618 18.6122L15.1006 13.951C14.7829 13.6334 14.2686 13.6334 13.951 13.951C13.6333 14.2683 13.6333 14.7832 13.951 15.1006L18.6122 19.7618C18.771 19.9206 18.9789 20 19.187 20C19.3949 20 19.603 19.9206 19.7618 19.7618C20.0794 19.4445 20.0794 18.9296 19.7618 18.6122Z" fill="#878787"/>
        </g>
        <defs>
        <clipPath id="clip0_4718_4915">
        <rect width="20" height="20" fill="white"/>
        </clipPath>
        </defs>
    </symbol>
    <symbol id="header-msg" width="24" height="24" viewBox="0 0 24 24" fill="none" xmlns="http://www.w3.org/2000/svg">
        <path fill-rule="evenodd" clip-rule="evenodd" d="M14.6845 2.47362C13.9235 2.16764 13.0942 2 12.2292 2C8.8731 2 6.05373 4.52345 5.68312 7.85899L5.43132 10.1252L5.42527 10.1793C5.31244 11.1625 4.9924 12.1106 4.48627 12.9611L4.45832 13.0077L3.88029 13.9711L3.85614 14.0114C3.61462 14.4138 3.3958 14.7785 3.25005 15.0879C3.10193 15.4024 2.94356 15.8286 3.01979 16.3117C3.09514 16.7893 3.34092 17.2233 3.71164 17.5337C4.08671 17.8476 4.53359 17.931 4.87948 17.9658C5.21985 18.0001 5.6451 18 6.11449 18L6.16139 18H18.2969L18.3438 18C18.8132 18 19.2385 18.0001 19.5788 17.9658C19.9247 17.931 20.3716 17.8476 20.7467 17.5337C21.1174 17.2233 21.3632 16.7893 21.4385 16.3117C21.5148 15.8286 21.3564 15.4024 21.2083 15.0879C21.0625 14.7785 20.8437 14.4138 20.6022 14.0114L20.578 13.9711L20 13.0077L19.9721 12.9611C19.5933 12.3247 19.3188 11.6336 19.1573 10.914C18.8565 10.9705 18.5463 11 18.2292 11C17.8452 11 17.4713 10.9567 17.1122 10.8748C17.2968 11.9715 17.6832 13.0259 18.2534 13.9839L18.285 14.0367L18.863 15.0001C19.1365 15.456 19.3014 15.733 19.3989 15.9401C19.4042 15.9514 19.4091 15.9621 19.4136 15.972C19.4027 15.9733 19.3911 15.9746 19.3786 15.9759C19.1509 15.9988 18.8285 16 18.2969 16H6.16139C5.6298 16 5.30742 15.9988 5.07968 15.9759C5.06722 15.9746 5.05558 15.9733 5.04471 15.972C5.0492 15.9621 5.05409 15.9514 5.05942 15.9401C5.15695 15.733 5.32177 15.456 5.59527 15.0001L6.17331 14.0367L6.20494 13.9839C6.85568 12.8904 7.26716 11.6714 7.41223 10.4073L7.41908 10.3461L7.67089 8.07985C7.92896 5.75718 9.8922 4 12.2292 4C12.6922 4 13.1405 4.06898 13.5639 4.19767C13.8158 3.54594 14.2004 2.96023 14.6845 2.47362ZM17.2113 4.27804C16.6233 4.62632 16.2292 5.26713 16.2292 6C16.2292 6.14503 16.2446 6.28645 16.2739 6.42272C16.3943 6.6476 16.4967 6.88404 16.5789 7.13021C16.9393 7.65547 17.544 8 18.2292 8C18.421 8 18.6066 7.97298 18.7823 7.92254L18.7752 7.85899C18.623 6.48875 18.0575 5.25555 17.2113 4.27804Z" fill="#5C6784"/>
        <path d="M9.33123 17.6647C9.50215 18.6215 9.87879 19.467 10.4027 20.0701C10.9267 20.6731 11.5686 21 12.229 21C12.8894 21 13.5314 20.6731 14.0553 20.0701C14.5792 19.467 14.9559 18.6215 15.1268 17.6647" stroke="#5C6784" stroke-width="2" stroke-linecap="round"/>
        <circle cx="18.229" cy="6" r="2.5" fill="#5C6784" stroke="#5C6784"/>
    </symbol>
    <symbol id="header-likes" width="20" height="20" viewBox="0 0 20 18" fill="none" xmlns="http://www.w3.org/2000/svg">
        <path d="M18.5408 1.90123C17.5543 0.781933 16.1859 0.165527 14.6875 0.165527C12.5802 0.165527 11.246 1.42412 10.4979 2.47998C10.3037 2.75396 10.1386 3.02869 10 3.28721C9.86137 3.02869 9.69629 2.75396 9.50215 2.47998C8.75402 1.42412 7.41984 0.165527 5.3125 0.165527C3.81414 0.165527 2.44566 0.781973 1.45918 1.90127C0.518242 2.969 0 4.399 0 5.92783C0 7.59201 0.649727 9.13986 2.04473 10.7989C3.29148 12.2817 5.08512 13.8102 7.16211 15.5801C7.93605 16.2396 8.73641 16.9216 9.58848 17.6671L9.61406 17.6895C9.72453 17.7863 9.86227 17.8346 10 17.8346C10.1377 17.8346 10.2755 17.7862 10.3859 17.6895L10.4115 17.6671C11.2636 16.9216 12.0639 16.2396 12.838 15.58C14.9149 13.8102 16.7085 12.2818 17.9553 10.7989C19.3503 9.13982 20 7.59201 20 5.92783C20 4.399 19.4818 2.969 18.5408 1.90123ZM12.0779 14.6881C11.4107 15.2566 10.724 15.8417 10 16.4712C9.27602 15.8418 8.58934 15.2567 7.92203 14.688C3.85723 11.2242 1.17188 8.93592 1.17188 5.92783C1.17188 4.68447 1.58613 3.52963 2.33836 2.67607C3.09922 1.81283 4.15543 1.3374 5.3125 1.3374C6.9191 1.3374 7.95766 2.32717 8.54594 3.15748C9.07363 3.90217 9.34898 4.65287 9.44289 4.94103C9.52145 5.18225 9.74633 5.34549 10 5.34549C10.2537 5.34549 10.4786 5.18225 10.5571 4.94103C10.651 4.65287 10.9264 3.90217 11.4541 3.15744C12.0423 2.32717 13.0809 1.3374 14.6875 1.3374C15.8446 1.3374 16.9008 1.81283 17.6616 2.67607C18.4139 3.52963 18.8281 4.68447 18.8281 5.92783C18.8281 8.93592 16.1428 11.2242 12.0779 14.6881Z" fill="#878787"/>
    </symbol>
    <symbol id="header-basket" width="20" height="20" viewBox="0 0 20 20" fill="none" xmlns="http://www.w3.org/2000/svg">
        <path d="M19.8249 4.54601C19.6766 4.36351 19.4539 4.25757 19.2187 4.25757H18.9372L14.9082 0.228593C14.6031 -0.0765233 14.1084 -0.0765233 13.8033 0.228593L12.1096 1.9223L10.4158 0.228593C10.1107 -0.0765233 9.61604 -0.0765233 9.31096 0.228593L5.28198 4.25757H5.0678L5.00983 3.72507L5.00776 3.70796C4.73042 1.59394 2.91339 -0.000234371 0.781249 -0.000234371C0.349765 -0.000234371 0 0.349531 0 0.781014C0 1.2125 0.349765 1.56226 0.781249 1.56226C2.12914 1.56226 3.27824 2.56808 3.45749 3.9032L4.3862 12.4352C3.57421 12.8038 3.00781 13.6218 3.00781 14.57C3.00781 14.5767 3.00863 14.583 3.00878 14.5896C3.00863 14.5961 3.00781 14.6025 3.00781 14.6091C3.00781 15.9015 4.05921 16.9529 5.35155 16.9529H5.67018C5.59065 17.1859 5.54686 17.4354 5.54686 17.695C5.54686 18.9659 6.58077 19.9997 7.85155 19.9997C9.12233 19.9997 10.1562 18.9659 10.1562 17.695C10.1562 17.4354 10.1124 17.1859 10.0329 16.9529H13.4045C13.325 17.1859 13.2812 17.4354 13.2812 17.695C13.2812 18.9659 14.3151 19.9997 15.5859 19.9997C16.8567 19.9997 17.8906 18.9659 17.8906 17.695C17.8906 16.4242 16.8567 15.3904 15.5859 15.3904H5.35155C4.92077 15.3904 4.5703 15.0399 4.5703 14.6091C4.5703 14.6025 4.56948 14.5961 4.56933 14.5896C4.56948 14.583 4.5703 14.5767 4.5703 14.57C4.5703 14.1393 4.92077 13.7888 5.35155 13.7888H15.3254C16.7122 13.7888 17.985 12.9308 18.5678 11.6028C18.7412 11.2077 18.5615 10.7468 18.1665 10.5734C17.7714 10.4 17.3105 10.5797 17.1371 10.9748C16.8085 11.7234 16.0805 12.2263 15.3254 12.2263H5.93518L5.23788 5.82007H18.2577L17.8755 7.65276C17.7874 8.07514 18.0584 8.48897 18.4807 8.57705C18.5346 8.5883 18.5882 8.59365 18.6411 8.59365C19.0032 8.59365 19.3282 8.34033 19.4051 7.97178L19.9836 5.19835C20.0315 4.96811 19.9732 4.72851 19.8249 4.54601ZM15.5859 16.9529C15.9952 16.9529 16.3281 17.2858 16.3281 17.695C16.3281 18.1043 15.9952 18.4372 15.5859 18.4372C15.1767 18.4372 14.8437 18.1043 14.8437 17.695C14.8437 17.2858 15.1767 16.9529 15.5859 16.9529ZM7.85155 16.9529C8.2608 16.9529 8.59373 17.2858 8.59373 17.695C8.59373 18.1043 8.2608 18.4372 7.85155 18.4372C7.44229 18.4372 7.10936 18.1043 7.10936 17.695C7.10936 17.2858 7.44229 16.9529 7.85155 16.9529ZM9.77432 4.25757H7.4917L9.86342 1.88586L11.0047 3.02718L9.77432 4.25757ZM11.984 4.25757L14.3558 1.88586L16.7274 4.25757H11.984Z" fill="#5C6784"/>
    </symbol>
    <symbol id="input-search" width="20" height="20" viewBox="0 0 20 20" fill="none" xmlns="http://www.w3.org/2000/svg">
        <g clip-path="url(#clip0_1858_6555)">
        <path d="M8.80758 0C3.95121 0 0 3.95121 0 8.80758C0 13.6642 3.95121 17.6152 8.80758 17.6152C13.6642 17.6152 17.6152 13.6642 17.6152 8.80758C17.6152 3.95121 13.6642 0 8.80758 0ZM8.80758 15.9892C4.8477 15.9892 1.62602 12.7675 1.62602 8.80762C1.62602 4.84773 4.8477 1.62602 8.80758 1.62602C12.7675 1.62602 15.9891 4.8477 15.9891 8.80758C15.9891 12.7675 12.7675 15.9892 8.80758 15.9892Z" fill="#949494"/>
        <path d="M19.7618 18.6122L15.1005 13.951C14.7829 13.6334 14.2685 13.6334 13.9509 13.951C13.6333 14.2683 13.6333 14.7832 13.9509 15.1006L18.6122 19.7618C18.771 19.9206 18.9789 20 19.187 20C19.3948 20 19.603 19.9206 19.7618 19.7618C20.0794 19.4445 20.0794 18.9296 19.7618 18.6122Z" fill="#949494"/>
        </g>
        <defs>
        <clipPath id="clip0_1858_6555">
        <rect width="20" height="20" fill="white"/>
        </clipPath>
        </defs>
    </symbol>
    <symbol id="likes-cafe-item" width="23" height="21" viewBox="0 0 23 21" fill="none" xmlns="http://www.w3.org/2000/svg">
        <path d="M21.3219 2.33639C20.1875 1.0492 18.6137 0.340332 16.8906 0.340332C14.4672 0.340332 12.9329 1.78772 12.0725 3.00196C11.8493 3.31704 11.6594 3.63297 11.5 3.93027C11.3406 3.63297 11.1507 3.31704 10.9275 3.00196C10.0671 1.78772 8.53282 0.340332 6.10938 0.340332C4.38626 0.340332 2.81251 1.04924 1.67806 2.33644C0.595978 3.56433 0 5.20883 0 6.96699C0 8.8808 0.747186 10.6608 2.35144 12.5688C3.78521 14.274 5.84789 16.0317 8.23643 18.0671C9.12646 18.8255 10.0469 19.6099 11.0267 20.4672L11.0562 20.493C11.1832 20.6042 11.3416 20.6598 11.5 20.6598C11.6584 20.6598 11.8168 20.6042 11.9438 20.493L11.9733 20.4672C12.9531 19.6099 13.8735 18.8256 14.7637 18.067C17.1521 16.0317 19.2148 14.274 20.6486 12.5688C22.2528 10.6608 23 8.8808 23 6.96699C23 5.20883 22.404 3.56433 21.3219 2.33639ZM13.8895 17.0413C13.1223 17.6951 12.3326 18.368 11.5 19.0918C10.6674 18.3681 9.87774 17.6951 9.11034 17.0412C4.43581 13.0579 1.34766 10.4263 1.34766 6.96699C1.34766 5.53712 1.82405 4.20905 2.68911 3.22746C3.5641 2.23473 4.77874 1.68799 6.10938 1.68799C7.95697 1.68799 9.1513 2.82622 9.82783 3.78108C10.4347 4.63747 10.7513 5.50078 10.8593 5.83217C10.9497 6.10956 11.2083 6.29729 11.5 6.29729C11.7917 6.29729 12.0503 6.10956 12.1407 5.83217C12.2487 5.50078 12.5653 4.63747 13.1722 3.78104C13.8487 2.82622 15.043 1.68799 16.8906 1.68799C18.2213 1.68799 19.4359 2.23473 20.3108 3.22746C21.1759 4.20905 21.6523 5.53712 21.6523 6.96699C21.6523 10.4263 18.5642 13.0579 13.8895 17.0413Z" fill="white"/>
    </symbol>
    <svg id="category-arrow" width="6" height="10" viewBox="0 0 6 10" fill="none" xmlns="http://www.w3.org/2000/svg">
        <path d="M1.05187e-07 1.17918L3.71005 5L1.40616e-08 8.82082L1.14496 10L6 5L1.14496 -2.60829e-08L1.05187e-07 1.17918Z" fill="#454545"/>
    </svg>
    <symbol id="filter-vertical" width="24" height="24" viewBox="0 0 24 24" fill="none" xmlns="http://www.w3.org/2000/svg">
        <path d="M5 12L5 4" stroke="#454545" stroke-width="2" stroke-linecap="round"/>
        <path d="M19 20L19 18" stroke="#454545" stroke-width="2" stroke-linecap="round"/>
        <path d="M5 20L5 16" stroke="#454545" stroke-width="2" stroke-linecap="round"/>
        <path d="M19 12L19 4" stroke="#454545" stroke-width="2" stroke-linecap="round"/>
        <path d="M12 7L12 4" stroke="#454545" stroke-width="2" stroke-linecap="round"/>
        <path d="M12 20L12 12" stroke="#454545" stroke-width="2" stroke-linecap="round"/>
        <circle cx="5" cy="14" r="2" stroke="#454545" stroke-width="2" stroke-linecap="round"/>
        <circle cx="12" cy="9" r="2" stroke="#454545" stroke-width="2" stroke-linecap="round"/>
        <circle cx="19" cy="15" r="2" stroke="#454545" stroke-width="2" stroke-linecap="round"/>
    </symbol>

    <symbol id="cafe-cart-number" width="15" height="15" viewBox="0 0 15 15" fill="none" xmlns="http://www.w3.org/2000/svg">
        <g clip-path="url(#clip0_1975_6842)">
        <path d="M11.8548 9.29195C11.5477 8.9722 11.1773 8.80124 10.7847 8.80124C10.3953 8.80124 10.0218 8.96903 9.70202 9.28878L8.70161 10.286C8.6193 10.2417 8.53699 10.2005 8.45784 10.1594C8.34387 10.1024 8.23623 10.0486 8.14442 9.9916C7.20733 9.39642 6.35572 8.62079 5.53893 7.61721C5.1432 7.11701 4.87726 6.69595 4.68415 6.26856C4.94375 6.03112 5.18435 5.78418 5.41863 5.54674C5.50727 5.4581 5.59591 5.36629 5.68456 5.27765C6.34939 4.61282 6.34939 3.75171 5.68456 3.08688L4.82028 2.2226C4.72214 2.12446 4.62083 2.02315 4.52586 1.92184C4.3359 1.72556 4.13646 1.52295 3.93068 1.333C3.62359 1.02907 3.25635 0.867615 2.87011 0.867615C2.48388 0.867615 2.11031 1.02907 1.79372 1.333C1.79056 1.33616 1.79056 1.33616 1.78739 1.33933L0.711003 2.42521C0.305774 2.83044 0.074667 3.32432 0.0240133 3.89734C-0.0519671 4.82176 0.220296 5.68288 0.429242 6.2464C0.942111 7.62988 1.70825 8.91205 2.85112 10.286C4.23776 11.9418 5.90617 13.2493 7.81201 14.1705C8.54016 14.5156 9.51207 14.924 10.598 14.9936C10.6644 14.9968 10.7341 15 10.7974 15C11.5287 15 12.1429 14.7372 12.6241 14.2148C12.6273 14.2085 12.6336 14.2054 12.6368 14.199C12.8014 13.9996 12.9913 13.8191 13.1908 13.626C13.3269 13.4962 13.4662 13.3601 13.6024 13.2176C13.9158 12.8915 14.0804 12.5116 14.0804 12.1222C14.0804 11.7297 13.9126 11.3529 13.5929 11.0363L11.8548 9.29195ZM12.9882 12.6256C12.985 12.6256 12.985 12.6288 12.9882 12.6256C12.8647 12.7586 12.7381 12.8789 12.6019 13.0118C12.3962 13.2081 12.1872 13.4139 11.9909 13.645C11.6712 13.9869 11.2944 14.1484 10.8006 14.1484C10.7531 14.1484 10.7024 14.1484 10.6549 14.1452C9.71469 14.085 8.84091 13.7178 8.18558 13.4044C6.39371 12.5369 4.82028 11.3054 3.51278 9.74467C2.43323 8.4435 1.71141 7.24048 1.23337 5.94881C0.938945 5.16051 0.831306 4.54634 0.878793 3.96698C0.910452 3.59658 1.05292 3.28949 1.31568 3.02673L2.39524 1.94717C2.55036 1.80154 2.71499 1.72239 2.87645 1.72239C3.0759 1.72239 3.23735 1.8427 3.33866 1.944C3.34183 1.94717 3.34499 1.95034 3.34816 1.9535C3.54128 2.13396 3.72489 2.32074 3.91801 2.52019C4.01615 2.6215 4.11746 2.7228 4.21877 2.82728L5.08305 3.69156C5.41863 4.02714 5.41863 4.33739 5.08305 4.67297C4.99124 4.76478 4.90259 4.85659 4.81078 4.94523C4.54485 5.2175 4.29158 5.47076 4.01615 5.7177C4.00982 5.72403 4.00349 5.7272 4.00032 5.73353C3.72806 6.00579 3.77871 6.27173 3.8357 6.45218C3.83887 6.46168 3.84203 6.47117 3.8452 6.48067C4.06997 7.0252 4.38656 7.53807 4.86777 8.14908L4.87093 8.15224C5.74471 9.22863 6.66597 10.0676 7.68221 10.7103C7.81201 10.7926 7.94498 10.859 8.07161 10.9224C8.18558 10.9793 8.29322 11.0332 8.38503 11.0902C8.39769 11.0965 8.41036 11.106 8.42302 11.1123C8.53066 11.1661 8.63197 11.1915 8.73644 11.1915C8.9992 11.1915 9.16383 11.0268 9.21765 10.973L10.3004 9.8903C10.408 9.78266 10.579 9.65286 10.7784 9.65286C10.9747 9.65286 11.1362 9.77632 11.2343 9.88396C11.2375 9.88713 11.2375 9.88713 11.2406 9.8903L12.985 11.6347C13.3111 11.9576 13.3111 12.29 12.9882 12.6256Z" fill="#F95738"/>
        <path d="M8.10644 3.56811C8.93589 3.70741 9.68936 4.09998 10.2909 4.70149C10.8924 5.303 11.2818 6.05647 11.4243 6.88593C11.4591 7.09487 11.6395 7.2405 11.8453 7.2405C11.8706 7.2405 11.8928 7.23734 11.9181 7.23417C12.1524 7.19618 12.3075 6.97457 12.2695 6.7403C12.0986 5.73672 11.6237 4.82179 10.8987 4.09681C10.1737 3.37183 9.25881 2.89695 8.25523 2.726C8.02096 2.68801 7.80251 2.84313 7.76136 3.07424C7.7202 3.30535 7.87216 3.53012 8.10644 3.56811Z" fill="#F95738"/>
        <path d="M14.9827 6.61682C14.7009 4.96424 13.9221 3.46046 12.7254 2.26377C11.5288 1.06708 10.025 0.288277 8.3724 0.00651579C8.1413 -0.0346403 7.92285 0.123652 7.8817 0.35476C7.8437 0.589033 7.99883 0.807477 8.23311 0.848633C9.70839 1.09873 11.0539 1.79839 12.1239 2.86528C13.194 3.93534 13.8905 5.28083 14.1406 6.75611C14.1754 6.96506 14.3559 7.11069 14.5616 7.11069C14.587 7.11069 14.6091 7.10752 14.6345 7.10436C14.8656 7.06953 15.0239 6.84792 14.9827 6.61682Z" fill="#F95738"/>
        </g>
        <defs>
        <clipPath id="clip0_1975_6842">
        <rect width="15" height="15" fill="white"/>
        </clipPath>
        </defs>
    </symbol>

    <symbol id="cafe-cart-delivery" width="20" height="20" viewBox="0 0 20 20" fill="none" xmlns="http://www.w3.org/2000/svg">
        <g clip-path="url(#clip0_1975_6788)">
        <path d="M15.105 11.8907C13.7149 11.8907 12.584 13.0216 12.584 14.4118C12.584 15.8019 13.7149 16.9328 15.105 16.9328C16.4954 16.9328 17.626 15.8019 17.626 14.4118C17.626 13.0216 16.4951 11.8907 15.105 11.8907ZM15.105 15.6723C14.4098 15.6723 13.8445 15.1069 13.8445 14.4118C13.8445 13.7166 14.4098 13.1513 15.105 13.1513C15.8002 13.1513 16.3655 13.7166 16.3655 14.4118C16.3655 15.107 15.8002 15.6723 15.105 15.6723Z" fill="#F95738"/>
        <path d="M6.49172 11.8907C5.1016 11.8907 3.9707 13.0216 3.9707 14.4118C3.9707 15.8019 5.1016 16.9328 6.49172 16.9328C7.88184 16.9328 9.01273 15.8019 9.01273 14.4118C9.01273 13.0216 7.88184 11.8907 6.49172 11.8907ZM6.49172 15.6723C5.79656 15.6723 5.23121 15.1069 5.23121 14.4118C5.23121 13.7166 5.79656 13.1513 6.49172 13.1513C7.18668 13.1513 7.75223 13.7166 7.75223 14.4118C7.75223 15.107 7.18687 15.6723 6.49172 15.6723Z" fill="#F95738"/>
        <path d="M16.8027 4.67483C16.6956 4.46202 16.4777 4.32776 16.2395 4.32776H12.9202V5.58827H15.8508L17.567 9.00171L18.6935 8.4353L16.8027 4.67483Z" fill="#F95738"/>
        <path d="M13.2142 13.8026H8.44531V15.0631H13.2142V13.8026Z" fill="#F95738"/>
        <path d="M4.60072 13.8026H2.41588C2.06775 13.8026 1.78564 14.0847 1.78564 14.4328C1.78564 14.7809 2.06779 15.063 2.41588 15.063H4.60076C4.94889 15.063 5.231 14.7809 5.231 14.4328C5.231 14.0847 4.94885 13.8026 4.60072 13.8026Z" fill="#F95738"/>
        <path d="M19.8676 9.94954L18.6279 8.3529C18.5088 8.19911 18.3249 8.10919 18.1302 8.10919H13.5503V3.69743C13.5503 3.34931 13.2682 3.0672 12.9201 3.0672H2.41588C2.06775 3.0672 1.78564 3.34935 1.78564 3.69743C1.78564 4.04552 2.06779 4.32767 2.41588 4.32767H12.2898V8.73943C12.2898 9.08755 12.572 9.36966 12.9201 9.36966H17.8215L18.7394 10.552V13.8024H16.9957C16.6476 13.8024 16.3655 14.0846 16.3655 14.4327C16.3655 14.7808 16.6476 15.0629 16.9957 15.0629H19.3696C19.7178 15.0629 19.9999 14.7808 19.9999 14.4327V10.3361C19.9999 10.1962 19.9533 10.0601 19.8676 9.94954Z" fill="#F95738"/>
        <path d="M4.55871 10.6093H1.65953C1.31141 10.6093 1.0293 10.8914 1.0293 11.2395C1.0293 11.5876 1.31145 11.8697 1.65953 11.8697H4.55867C4.9068 11.8697 5.18891 11.5876 5.18891 11.2395C5.18895 10.8914 4.9068 10.6093 4.55871 10.6093Z" fill="#F95738"/>
        <path d="M6.0084 8.13025H0.630234C0.282148 8.13025 0 8.4124 0 8.76052C0 9.10865 0.282148 9.39076 0.630234 9.39076H6.0084C6.35652 9.39076 6.63863 9.10861 6.63863 8.76052C6.63863 8.41244 6.35652 8.13025 6.0084 8.13025Z" fill="#F95738"/>
        <path d="M7.0377 5.65125H1.65953C1.31141 5.65125 1.0293 5.93339 1.0293 6.28148C1.0293 6.6296 1.31145 6.91171 1.65953 6.91171H7.0377C7.38582 6.91171 7.66793 6.62957 7.66793 6.28148C7.66797 5.93339 7.38582 5.65125 7.0377 5.65125Z" fill="#F95738"/>
        </g>
        <defs>
        <clipPath id="clip0_1975_6788">
        <rect width="20" height="20" fill="white"/>
        </clipPath>
        </defs>
    </symbol>

    <symbol id="cafe-cart-surprise" width="20" height="20" viewBox="0 0 20 20" fill="none" xmlns="http://www.w3.org/2000/svg">
        <path d="M16.5059 5.98438H14.4791C14.7925 5.56787 14.9785 5.0504 14.9785 4.49023C14.9785 3.11712 13.8614 2 12.4883 2C11.6612 2 11.0513 2.29634 10.5688 2.93258C10.1653 3.46489 9.87015 4.20811 9.5 5.14716C9.12985 4.20807 8.83474 3.46489 8.43116 2.93258C7.94875 2.29634 7.33884 2 6.51172 2C5.1386 2 4.02148 3.11712 4.02148 4.49023C4.02148 5.0504 4.20752 5.56787 4.52089 5.98438H2.49414C1.67027 5.98438 1 6.65465 1 7.47852V8.47461C1 9.1239 1.4164 9.67749 1.99609 9.88309V17.5059C1.99609 18.3297 2.66637 19 3.49023 19H15.5098C16.3336 19 17.0039 18.3297 17.0039 17.5059V9.88309C17.5836 9.67749 18 9.1239 18 8.47461V7.47852C18 6.65465 17.3297 5.98438 16.5059 5.98438ZM10.4142 5.5441C11.1772 3.60843 11.4673 2.99609 12.4883 2.99609C13.3122 2.99609 13.9824 3.66637 13.9824 4.49023C13.9824 5.3141 13.3122 5.98438 12.4883 5.98438H10.24C10.301 5.83114 10.3592 5.68362 10.4142 5.5441ZM6.51172 2.99609C7.53275 2.99609 7.82281 3.60843 8.58579 5.5441C8.64077 5.68362 8.69897 5.83114 8.76 5.98438H6.51172C5.68785 5.98438 5.01758 5.3141 5.01758 4.49023C5.01758 3.66637 5.68785 2.99609 6.51172 2.99609ZM7.50781 18.0039H3.49023C3.21561 18.0039 2.99219 17.7805 2.99219 17.5059V9.96875H7.50781V18.0039ZM7.50781 8.97266H2.49414C2.21952 8.97266 1.99609 8.74923 1.99609 8.47461V7.47852C1.99609 7.20389 2.21952 6.98047 2.49414 6.98047H7.50781V8.97266ZM10.4961 18.0039H8.50391V6.98047C8.60826 6.98047 9.92367 6.98047 10.4961 6.98047V18.0039ZM16.0078 17.5059C16.0078 17.7805 15.7844 18.0039 15.5098 18.0039H11.4922V9.96875H16.0078V17.5059ZM17.0039 8.47461C17.0039 8.74923 16.7805 8.97266 16.5059 8.97266H11.4922V6.98047H16.5059C16.7805 6.98047 17.0039 7.20389 17.0039 7.47852V8.47461Z" fill="#F95738"/>
    </symbol>

    <symbol id="cafe-cart-whatsapp" width="30" height="30" viewBox="0 0 30 30" fill="none" xmlns="http://www.w3.org/2000/svg">
        <path d="M15.0037 0H14.9963C6.72563 0 0 6.7275 0 15C0 18.2812 1.0575 21.3225 2.85562 23.7919L0.98625 29.3644L6.75187 27.5213C9.12375 29.0925 11.9531 30 15.0037 30C23.2744 30 30 23.2706 30 15C30 6.72938 23.2744 0 15.0037 0Z" fill="#4CAF50"/>
        <path d="M23.7318 21.1818C23.3699 22.2037 21.9337 23.0512 20.788 23.2987C20.0043 23.4655 18.9805 23.5987 15.5343 22.1699C11.1262 20.3437 8.28741 15.8643 8.06616 15.5737C7.85429 15.283 6.28491 13.2018 6.28491 11.0493C6.28491 8.89679 7.37804 7.84866 7.81866 7.39866C8.18054 7.02928 8.77866 6.86053 9.35241 6.86053C9.53804 6.86053 9.70491 6.86991 9.85491 6.87741C10.2955 6.89616 10.5168 6.92241 10.8074 7.61804C11.1693 8.48991 12.0505 10.6424 12.1555 10.8637C12.2624 11.0849 12.3693 11.3849 12.2193 11.6755C12.0787 11.9755 11.9549 12.1087 11.7337 12.3637C11.5124 12.6187 11.3024 12.8137 11.0812 13.0874C10.8787 13.3255 10.6499 13.5805 10.9049 14.0212C11.1599 14.4524 12.0412 15.8905 13.3387 17.0455C15.013 18.5362 16.3705 19.0124 16.8562 19.2149C17.218 19.3649 17.6493 19.3293 17.9137 19.048C18.2493 18.6862 18.6637 18.0862 19.0855 17.4955C19.3855 17.0718 19.7643 17.0193 20.1618 17.1693C20.5668 17.3099 22.7099 18.3693 23.1505 18.5887C23.5912 18.8099 23.8818 18.9149 23.9887 19.1005C24.0937 19.2862 24.0937 20.158 23.7318 21.1818Z" fill="#FAFAFA"/>
    </symbol>

    <symbol id="cafe-cart-telegram" width="30" height="30" viewBox="0 0 30 30" fill="none" xmlns="http://www.w3.org/2000/svg">
        <path d="M15 30C23.2843 30 30 23.2843 30 15C30 6.71573 23.2843 0 15 0C6.71573 0 0 6.71573 0 15C0 23.2843 6.71573 30 15 30Z" fill="#2AABEE"/>
        <path fill-rule="evenodd" clip-rule="evenodd" d="M6.78979 14.8416C11.1626 12.9364 14.0785 11.6804 15.5374 11.0736C19.7031 9.34097 20.5687 9.03997 21.1328 9.03001C21.2569 9.02784 21.5344 9.05861 21.7141 9.20445C21.9807 9.42077 21.9822 9.89034 21.9526 10.2011C21.7269 12.573 20.7501 18.3288 20.2532 20.9854C20.0429 22.1094 19.6288 22.4864 19.2281 22.5232C18.357 22.6034 17.6955 21.9475 16.8519 21.3945C15.5317 20.5291 14.7858 19.9904 13.5043 19.1459C12.0234 18.17 12.9834 17.6336 13.8274 16.757C14.0483 16.5276 17.8863 13.0367 17.9606 12.72C17.9699 12.6803 17.9785 12.5327 17.8908 12.4548C17.8031 12.3768 17.6736 12.4034 17.5802 12.4246C17.4478 12.4547 15.3388 13.8487 11.2532 16.6066C10.6545 17.0177 10.1123 17.218 9.62649 17.2075C9.09088 17.1959 8.06069 16.9047 7.29481 16.6557C6.35543 16.3504 5.60883 16.1889 5.67387 15.6703C5.70774 15.4001 6.07969 15.1239 6.78979 14.8416Z" fill="white"/>
    </symbol>

    <symbol id="cafe-cart-basket" width="18" height="16" viewBox="0 0 18 16" fill="none" xmlns="http://www.w3.org/2000/svg">
        <path d="M11.8489 14.8006C11.8783 14.8056 11.9075 14.808 11.9363 14.808C12.1894 14.808 12.4128 14.6231 12.4558 14.3622L12.9831 11.1624C13.031 10.8718 12.837 10.597 12.5497 10.5486C12.2624 10.5 11.9907 10.6964 11.9428 10.987L11.4155 14.1869C11.3676 14.4774 11.5616 14.7522 11.8489 14.8006Z" fill="white"/>
        <path d="M5.57952 14.3622C5.62252 14.6231 5.8459 14.808 6.09906 14.808C6.12786 14.808 6.15704 14.8056 6.18639 14.8006C6.47369 14.7522 6.66775 14.4774 6.61987 14.1869L6.09252 10.987C6.04464 10.6964 5.77299 10.5002 5.48566 10.5486C5.19836 10.597 5.0043 10.8718 5.05218 11.1623L5.57952 14.3622Z" fill="white"/>
        <path d="M17.4727 5.33333H15.6167L11.5563 0.200172C11.3744 -0.0297661 11.0426 -0.0671351 10.8151 0.116901C10.5877 0.300901 10.5508 0.63651 10.7328 0.866519L14.2661 5.33333H3.73391L7.26725 0.866519C7.44919 0.63651 7.41231 0.300865 7.18492 0.116901C6.95746 -0.0671351 6.62562 -0.0298017 6.44372 0.200172L2.38328 5.33333H0.527344C0.236109 5.33333 0 5.57212 0 5.86666V8C0 8.29454 0.236109 8.53333 0.527344 8.53333H1.18427L3.18438 15.6132C3.24904 15.8422 3.45596 16 3.69141 16H14.3086C14.544 16 14.751 15.8422 14.8157 15.6132L16.8157 8.53333H17.4727C17.7639 8.53333 18 8.29454 18 8V5.86666C18 5.57212 17.7639 5.33333 17.4727 5.33333ZM13.9108 14.9333H4.08916L2.28115 8.53333H15.7189L13.9108 14.9333ZM16.9453 7.46666C15.1388 7.46666 2.76609 7.46666 1.05469 7.46666V6.4H16.9453V7.46666Z" fill="white"/>
        <path d="M9 14.8078C9.29123 14.8078 9.52734 14.569 9.52734 14.2744V11.0746C9.52734 10.78 9.29123 10.5412 9 10.5412C8.70876 10.5412 8.47266 10.78 8.47266 11.0746V14.2744C8.47266 14.569 8.70876 14.8078 9 14.8078Z" fill="white"/>
    </symbol>

    <symbol id="cafe-cart-minus" width="12" height="2" viewBox="0 0 12 2" fill="none" xmlns="http://www.w3.org/2000/svg">
        <path d="M11 1L1 1" stroke="#5C6784" stroke-width="1.2" stroke-linecap="round"/>
    </symbol>

    <symbol id="cafe-cart-plus" width="12" height="12" viewBox="0 0 12 12" fill="none" xmlns="http://www.w3.org/2000/svg">
    <!-- <circle cx="18" cy="18" r="17" stroke="#5C6784"/> -->
        <path d="M18 13L18 23" stroke="#5C6784" stroke-width="1.2" stroke-linecap="round"/>
        <path d="M23 18L13 18" stroke="#5C6784" stroke-width="1.2" stroke-linecap="round"/>
    </symbol>

    <symbol id="cafe-cart-star" width="15" height="15" viewBox="0 0 15 15" fill="none" xmlns="http://www.w3.org/2000/svg">
        <path d="M11.6427 14.6966C11.807 14.6966 11.9702 14.6453 12.1095 14.5446C12.3689 14.3566 12.4901 14.0334 12.4195 13.7216L11.4545 9.47076L14.7272 6.60074C14.9677 6.39074 15.0596 6.05816 14.9609 5.75386C14.8621 5.45012 14.5934 5.23508 14.2752 5.20567L9.94515 4.81255L8.23319 0.806218C8.10696 0.511869 7.81948 0.321777 7.50006 0.321777C7.18065 0.321777 6.89317 0.511869 6.76694 0.805532L5.05498 4.81255L0.725577 5.20567C0.406737 5.23439 0.138024 5.45012 0.0392599 5.75386C-0.0595055 6.05759 0.0318203 6.39074 0.272381 6.60074L3.54501 9.47019L2.58002 13.7209C2.50929 14.0334 2.6306 14.3566 2.88993 14.5441C3.14869 14.7315 3.49374 14.7459 3.76623 14.5822L7.50006 12.3509L11.2339 14.5834C11.3601 14.6584 11.5008 14.6966 11.6427 14.6966ZM7.50006 11.3896C7.35815 11.3896 7.21762 11.4278 7.09127 11.5027L3.56744 13.6103L4.47818 9.59825C4.54319 9.31272 4.44625 9.01459 4.2256 8.82141L1.13551 6.11138L5.22378 5.74012C5.51813 5.71323 5.77128 5.52817 5.88629 5.25694L7.50006 1.47617L9.11578 5.25751C9.22953 5.52691 9.48268 5.71197 9.77635 5.73886L13.8652 6.11012L10.7752 8.82015C10.5539 9.0139 10.4571 9.31146 10.5226 9.59768L11.4327 13.6096L7.90886 11.5027C7.78262 11.4278 7.64197 11.3896 7.50006 11.3896ZM9.97822 4.89003C9.97822 4.89003 9.97822 4.89072 9.97891 4.89129L9.97822 4.89003ZM5.02316 4.8882L5.02247 4.88946C5.02247 4.88877 5.02247 4.88877 5.02316 4.8882Z" fill="#F95738"/>
    </symbol>

    <symbol id="cafe-cart-arrow" width="6" height="10" viewBox="0 0 6 10" fill="none" xmlns="http://www.w3.org/2000/svg">
        <path d="M1.05187e-07 1.17918L3.71005 5L1.40616e-08 8.82082L1.14496 10L6 5L1.14496 1.36535e-08L1.05187e-07 1.17918Z" fill="#5C6784"/>
    </symbol>

    <symbol id="cafe-cart-close" width="15" height="15" viewBox="0 0 15 15" fill="none" xmlns="http://www.w3.org/2000/svg">
        <path d="M6.67156 7.50076L0.171857 1.00102C-0.0569801 0.772185 -0.0569801 0.401169 0.171857 0.172361C0.400694 -0.0564477 0.771709 -0.056477 1.00052 0.172361L7.50025 6.6721L14 0.172361C14.2288 -0.056477 14.5998 -0.056477 14.8286 0.172361C15.0574 0.401198 15.0575 0.772214 14.8286 1.00102L8.32891 7.50073L14.8286 14.0005C15.0575 14.2293 15.0575 14.6003 14.8286 14.8291C14.7142 14.9435 14.5642 15.0007 14.4143 15.0007C14.2643 15.0007 14.1144 14.9435 13.9999 14.8291L7.50025 8.32942L1.00055 14.8291C0.886143 14.9435 0.736173 15.0007 0.586202 15.0007C0.436232 15.0007 0.28629 14.9435 0.171857 14.8291C-0.0569801 14.6003 -0.0569801 14.2293 0.171857 14.0005L6.67156 7.50076Z" fill="#878787"/>
    </symbol>














</svg>