<svg width="107" height="30" viewBox="0 0 107 30" fill="none" xmlns="http://www.w3.org/2000/svg">
<path d="M10.2477 5.45547C7.99619 9.36262 5.39676 16.4911 6.5565 23.6715C6.59201 23.8831 6.56496 24.1005 6.47866 24.2969C6.39237 24.4934 6.25059 24.6604 6.07073 24.7774C5.89087 24.8944 5.68075 24.9563 5.46619 24.9556C5.25162 24.9549 5.04193 24.8915 4.86287 24.7733C2.9986 23.5116 1.56352 21.7113 0.749232 19.6127C-0.0650591 17.5141 -0.219818 15.2171 0.305615 13.0282C0.831048 10.8393 2.01167 8.8628 3.68987 7.36251C5.36807 5.86222 7.46399 4.90954 9.69782 4.63165C9.79983 4.61891 9.90337 4.63481 9.99685 4.67757C10.0903 4.72033 10.1701 4.78826 10.2271 4.87376C10.2842 4.95927 10.3164 5.05897 10.32 5.1617C10.3236 5.26444 10.2986 5.36615 10.2477 5.45547Z" fill="#5C6784"/>
<path d="M22.1932 19.1665C22.364 19.1252 22.5413 19.1183 22.7147 19.1464C22.8882 19.1745 23.0543 19.2369 23.2033 19.3301C23.3523 19.4232 23.4812 19.5451 23.5824 19.6887C23.6836 19.8323 23.7552 19.9947 23.7929 20.1663C24.1579 21.7802 24.0172 23.4673 23.3898 24.9984C22.7624 26.5295 21.6787 27.8303 20.2862 28.724C18.8936 29.6176 17.2596 30.0608 15.6063 29.9933C13.9531 29.9257 12.3607 29.3508 11.0456 28.3465C10.3768 27.8371 9.79363 27.2242 9.31801 26.5309C9.05124 26.1815 8.82829 25.8008 8.65415 25.3972C7.76234 22.5058 12.0094 20.8302 12.7952 20.4562C15.1947 19.3205 17.1943 19.3445 19.1179 19.3665C19.9023 19.3897 20.6874 19.3684 21.4694 19.3025C21.7131 19.2712 21.9548 19.2258 22.1932 19.1665Z" fill="#F95738"/>
<path d="M26.7741 13.4538C26.7152 13.5239 26.6525 13.5906 26.5862 13.6537C26.5082 13.7317 26.4302 13.8017 26.3502 13.8697C25.999 14.1647 25.5973 14.3937 25.1645 14.5456C24.9651 14.6176 24.7605 14.6744 24.5526 14.7155C21.5932 15.3374 17.4941 13.6298 12.0253 17.7569C11.3015 18.3047 10.8656 18.1348 10.6576 17.4929C10.3877 16.6691 10.4897 15.0614 10.8356 13.1838C11.5374 9.36068 13.2351 4.41376 14.8347 2.65214C15.0744 2.38472 15.3323 2.13418 15.6065 1.9023C16.2001 1.3988 16.8644 0.985147 17.5781 0.674572C19.2656 -0.0633728 21.1551 -0.200501 22.9315 0.286056C24.7079 0.772613 26.2638 1.85344 27.3398 3.34831C28.4157 4.84317 28.9467 6.66172 28.8441 8.50067C28.7415 10.3396 28.0116 12.0878 26.7761 13.4538H26.7741Z" fill="#0EA976"/>
<path d="M43.1025 9.45203H42.9765C42.7592 10.0586 42.5199 10.7478 42.2587 11.5196C41.9974 12.2914 41.7241 13.0912 41.4388 13.9191C41.1529 14.7489 40.885 15.5527 40.639 16.3185L40.2871 17.8822C40.1851 18.2021 40.0871 18.5541 39.9712 18.94C39.8552 19.3259 39.7432 19.7178 39.6192 20.1137C39.4953 20.5096 39.3753 20.8815 39.2653 21.2335C39.1553 21.5854 39.0654 21.8993 38.9754 22.1673C38.8074 22.2173 38.6275 22.2632 38.4335 22.3052C38.2051 22.3509 37.9725 22.3724 37.7397 22.3692C37.2937 22.3929 36.8509 22.2829 36.4679 22.0533C36.3146 21.9499 36.191 21.8082 36.1093 21.6423C36.0276 21.4764 35.9906 21.2921 36.002 21.1075C36.003 20.9116 36.0327 20.7169 36.09 20.5296C36.148 20.3297 36.212 20.0997 36.278 19.8478C36.4459 19.2932 36.6732 18.6 36.9598 17.7682C37.2464 16.9364 37.5577 16.0359 37.8936 15.0668C38.2295 14.0924 38.5781 13.1092 38.9394 12.1175C39.3006 11.1257 39.6412 10.1972 39.9612 9.33206C40.2784 8.46825 40.5557 7.74174 40.793 7.15253C41.0873 7.00152 41.4008 6.8912 41.7248 6.8246C42.146 6.72443 42.5775 6.67409 43.0105 6.67464C43.5462 6.66903 44.0789 6.75422 44.5862 6.92658C45.0634 7.09455 45.3613 7.36115 45.48 7.72641C45.8332 8.65021 46.2111 9.70864 46.6137 10.9017C47.0163 12.0948 47.4282 13.3385 47.8494 14.6329C48.2694 15.926 48.6726 17.1863 49.0592 18.4141C49.4458 19.6418 49.7897 20.7549 50.091 21.7534C49.8967 21.9549 49.6596 22.11 49.3971 22.2073C49.0713 22.3296 48.7253 22.3893 48.3773 22.3832C47.8228 22.3832 47.4229 22.2779 47.1776 22.0673C46.9017 21.8032 46.7051 21.4673 46.6097 21.0975L45.5779 17.7962L45.25 16.1826C44.9834 15.3254 44.7168 14.4809 44.4502 13.6491C44.1836 12.8173 43.9356 12.0401 43.7064 11.3176C43.4717 10.5964 43.2704 9.97458 43.1025 9.45203ZM38.8694 18.5001L40.0531 16.0066H46.3538L46.8337 18.5001H38.8694Z" fill="#2C2C2C"/>
<path d="M55.4279 12.1995H52.3286L52.4306 6.88065C52.5646 6.84665 52.7585 6.80466 53.0105 6.75467C53.2846 6.70222 53.5632 6.67677 53.8423 6.67869C54.4302 6.67869 54.8587 6.784 55.128 6.99462C55.3973 7.20524 55.5306 7.57916 55.5279 8.11638L55.4279 12.1995ZM58.2513 9.87999C59.2644 9.86536 60.2651 10.1039 61.1627 10.5738C62.0417 11.0499 62.7572 11.7793 63.2162 12.6674C63.7228 13.6005 63.9754 14.7643 63.9741 16.1586C63.9727 17.553 63.7061 18.7294 63.1743 19.6879C62.6699 20.6053 61.8948 21.3448 60.9547 21.8054C59.92 22.2943 58.7857 22.536 57.6415 22.5112C56.7926 22.5263 55.9463 22.4116 55.132 22.1713C54.5016 21.9795 53.8972 21.7109 53.3324 21.3715C53.0281 21.169 52.7671 20.908 52.5646 20.6037C52.3958 20.3091 52.3127 19.9732 52.3246 19.6339V11.4936H55.4239V19.4339C55.7022 19.6127 56.0036 19.7527 56.3197 19.8498C56.7394 19.9817 57.1776 20.0452 57.6175 20.0378C58.0483 20.0558 58.4779 19.9793 58.8762 19.8139C59.2744 19.6485 59.6317 19.398 59.923 19.08C60.5028 18.4428 60.7928 17.4683 60.7928 16.1566C60.7928 14.8449 60.5088 13.8818 59.941 13.2673C59.6525 12.9631 59.3024 12.724 58.9142 12.5661C58.5259 12.4082 58.1083 12.335 57.6894 12.3515C57.1502 12.3413 56.6156 12.4535 56.1258 12.6794C55.7056 12.8755 55.3151 13.1299 54.966 13.4352L54.7661 10.9138C55.228 10.6423 55.7124 10.4108 56.2138 10.2219C56.8655 9.98102 57.5567 9.86502 58.2513 9.87999Z" fill="#2C2C2C"/>
<path d="M67.9812 17.7702L67.8552 15.6027L74.6097 14.6029C74.5711 13.9783 74.315 13.3869 73.8859 12.9313C73.45 12.4621 72.8115 12.2268 71.9703 12.2254C71.5706 12.2155 71.1732 12.2899 70.8042 12.4439C70.4352 12.5979 70.1028 12.8281 69.8288 13.1192C69.2569 13.7164 68.963 14.5696 68.947 15.6787L69.021 16.9884C69.1729 18.0642 69.5888 18.854 70.2687 19.3579C70.9505 19.8618 71.8103 20.1137 72.8541 20.1137C73.5223 20.1199 74.1867 20.0137 74.8197 19.7998C75.3283 19.6367 75.8116 19.4031 76.2554 19.1059C76.4843 19.2509 76.6783 19.4448 76.8233 19.6738C76.9645 19.8961 77.0388 20.1543 77.0372 20.4177C77.0349 20.6367 76.9812 20.8521 76.8805 21.0465C76.7798 21.241 76.6348 21.4091 76.4573 21.5374C75.9916 21.8898 75.4556 22.138 74.8857 22.2653C74.1512 22.4423 73.3976 22.527 72.6422 22.5172C71.4554 22.5401 70.279 22.294 69.2009 21.7974C68.2183 21.3355 67.4005 20.584 66.8574 19.6438C66.2935 18.6867 66.0116 17.4936 66.0116 16.0646C65.9904 15.1403 66.1522 14.2208 66.4875 13.3592C66.7662 12.6436 67.1965 11.9969 67.7487 11.4633C68.3009 10.9297 68.9621 10.5219 69.6868 10.2679C70.4136 10.0036 71.181 9.86824 71.9543 9.86795C72.9651 9.84555 73.9657 10.0751 74.8657 10.5358C75.6777 10.9627 76.3575 11.6037 76.8313 12.3894C77.3199 13.2118 77.5692 14.1543 77.5511 15.1108C77.5511 15.5827 77.4291 15.9313 77.1852 16.1566C76.8985 16.4023 76.5401 16.5488 76.1634 16.5745L67.9812 17.7702Z" fill="#2C2C2C"/>
<path d="M87.9427 19.5339V11.6196H91.0441V19.8658C91.0564 20.1894 90.9729 20.5094 90.8041 20.7856C90.6011 21.0702 90.3384 21.307 90.0343 21.4795C89.5216 21.7965 88.9661 22.0383 88.3846 22.1973C87.6098 22.4182 86.8068 22.5246 86.0012 22.5132C84.8117 22.5396 83.6304 22.3119 82.5359 21.8454C81.574 21.4178 80.7744 20.6932 80.2544 19.7778C79.7212 18.8447 79.4546 17.6643 79.4546 16.2366C79.4546 14.7703 79.7279 13.5705 80.2744 12.6374C80.778 11.7358 81.5456 11.0101 82.4739 10.5579C83.435 10.1047 84.4867 9.87626 85.5493 9.89C86.1238 9.88372 86.6963 9.9605 87.2489 10.1179C87.6873 10.236 88.1072 10.4143 88.4966 10.6478V13.2833C88.185 13.0046 87.827 12.7826 87.4388 12.6274C86.9584 12.4354 86.4444 12.3416 85.9272 12.3515C85.3399 12.3463 84.7602 12.4835 84.2375 12.7514C83.7157 13.0304 83.2999 13.473 83.0538 14.0111C82.7416 14.7207 82.5946 15.4919 82.6239 16.2666C82.6239 17.577 82.9265 18.5348 83.5317 19.14C84.1369 19.7452 84.9521 20.0471 85.9772 20.0458C86.3691 20.0541 86.76 20.0036 87.1369 19.8958C87.4193 19.8086 87.6899 19.687 87.9427 19.5339ZM91.0441 12.2495L87.9427 12.2675L88.0447 6.86866C88.1627 6.83467 88.3506 6.79267 88.6126 6.74268C88.8822 6.69142 89.156 6.66598 89.4304 6.6667C90.0303 6.6667 90.4722 6.77268 90.7421 6.98263C91.0121 7.19259 91.142 7.56651 91.142 8.10439L91.0441 12.2495Z" fill="#2C2C2C"/>
<path d="M105.245 12.8554C104.755 11.9334 104.012 11.1704 103.104 10.6559C102.119 10.1182 101.011 9.84856 99.8903 9.87403C98.7669 9.84969 97.6562 10.1148 96.665 10.6439C95.748 11.1469 94.9954 11.9036 94.4974 12.8234C93.9534 13.8555 93.6842 15.0103 93.7156 16.1767C93.7156 17.487 93.9715 18.6128 94.4834 19.5539C94.9763 20.4734 95.725 21.2305 96.639 21.7334C97.6459 22.2397 98.7572 22.5034 99.8843 22.5034C101.011 22.5034 102.123 22.2397 103.13 21.7334C104.04 21.226 104.781 20.4608 105.259 19.5339C105.784 18.4916 106.044 17.3355 106.015 16.1687C106.042 15.017 105.777 13.8773 105.245 12.8554ZM102.058 19.032C101.803 19.3597 101.473 19.6215 101.096 19.7954C100.718 19.9694 100.305 20.0504 99.8903 20.0318C98.9478 20.0318 98.2146 19.6986 97.6907 19.032C97.1668 18.3655 96.9062 17.4124 96.9089 16.1727C96.9089 14.9623 97.1755 14.0211 97.7087 13.3493C97.9627 13.0233 98.2907 12.7625 98.6656 12.5887C99.0404 12.4148 99.4514 12.3328 99.8643 12.3495C100.805 12.3495 101.539 12.6894 102.064 13.3693C102.589 14.0491 102.85 14.9862 102.846 16.1807C102.842 17.4084 102.579 18.3588 102.058 19.032Z" fill="#2C2C2C"/>
</svg>
